<?xml version="1.0" encoding="UTF-8" standalone="no"?>
<!-- Created with Inkscape (http://www.inkscape.org/) -->

<svg
   xmlns:dc="http://purl.org/dc/elements/1.1/"
   xmlns:cc="http://creativecommons.org/ns#"
   xmlns:rdf="http://www.w3.org/1999/02/22-rdf-syntax-ns#"
   xmlns:svg="http://www.w3.org/2000/svg"
   xmlns="http://www.w3.org/2000/svg"
   xmlns:sodipodi="http://sodipodi.sourceforge.net/DTD/sodipodi-0.dtd"
   xmlns:inkscape="http://www.inkscape.org/namespaces/inkscape"
   version="1.1"
   id="svg3718"
   xml:space="preserve"
   width="816"
   height="267.37201"
   viewBox="0 0 816 267.37201"
   sodipodi:docname="ALAC_EDITABLE.svg"
   inkscape:version="0.92.2 5c3e80d, 2017-08-06"><metadata
     id="metadata3724"><rdf:RDF><cc:Work
         rdf:about=""><dc:format>image/svg+xml</dc:format><dc:type
           rdf:resource="http://purl.org/dc/dcmitype/StillImage" /><dc:title></dc:title></cc:Work></rdf:RDF></metadata><defs
     id="defs3722"><clipPath
       clipPathUnits="userSpaceOnUse"
       id="clipPath3734"><path
         d="M 0,200.529 H 612 V 0 H 0 Z"
         id="path3732"
         inkscape:connector-curvature="0" /></clipPath></defs><sodipodi:namedview
     pagecolor="#ffffff"
     bordercolor="#666666"
     borderopacity="1"
     objecttolerance="10"
     gridtolerance="10"
     guidetolerance="10"
     inkscape:pageopacity="0"
     inkscape:pageshadow="2"
     inkscape:window-width="1920"
     inkscape:window-height="1080"
     id="namedview3720"
     showgrid="false"
     inkscape:zoom="1.6482843"
     inkscape:cx="408"
     inkscape:cy="133.686"
     inkscape:window-x="0"
     inkscape:window-y="0"
     inkscape:window-maximized="1"
     inkscape:current-layer="g3726" /><g
     id="g3726"
     inkscape:groupmode="layer"
     inkscape:label="ALAC_EDITABLE"
     transform="matrix(1.3333333,0,0,-1.3333333,0,267.372)"><g
       id="g3728"><g
         id="g3730"
         clip-path="url(#clipPath3734)"><g
           id="g3736"
           transform="translate(28.6582,38.6001)"><path
             d="m 0,0 c -0.483,0.631 -1.101,1.114 -1.84,1.456 -0.749,0.336 -1.517,0.507 -2.305,0.507 -0.976,0 -1.849,-0.18 -2.636,-0.545 -0.787,-0.365 -1.461,-0.863 -2.021,-1.494 -0.559,-0.631 -0.986,-1.37 -1.299,-2.219 -0.303,-0.849 -0.455,-1.76 -0.455,-2.732 0,-0.906 0.142,-1.764 0.436,-2.575 0.285,-0.811 0.712,-1.522 1.262,-2.138 0.549,-0.612 1.223,-1.1 2.01,-1.456 0.797,-0.356 1.698,-0.532 2.703,-0.532 0.987,0 1.85,0.2 2.589,0.607 0.75,0.404 1.375,0.968 1.898,1.698 l 1.963,-1.479 c -0.123,-0.181 -0.351,-0.436 -0.674,-0.768 -0.322,-0.332 -0.758,-0.664 -1.289,-0.992 -0.531,-0.332 -1.177,-0.626 -1.926,-0.877 -0.759,-0.251 -1.631,-0.375 -2.617,-0.375 -1.357,0 -2.58,0.257 -3.671,0.778 -1.101,0.517 -2.029,1.195 -2.798,2.039 -0.768,0.84 -1.356,1.793 -1.755,2.85 -0.407,1.062 -0.606,2.134 -0.606,3.22 0,1.328 0.218,2.551 0.654,3.675 0.437,1.129 1.043,2.097 1.83,2.917 0.787,0.816 1.727,1.451 2.826,1.906 1.101,0.451 2.315,0.678 3.643,0.678 1.138,0 2.248,-0.218 3.338,-0.654 1.091,-0.436 1.992,-1.11 2.684,-2.016 z"
             style="fill:#5f5f60;fill-opacity:1;fill-rule:nonzero;stroke:none"
             id="path3738"
             inkscape:connector-curvature="0" /></g><g
           id="g3740"
           transform="translate(41.2158,31.8237)"><path
             d="M 0,0 C -0.02,0.488 -0.095,0.929 -0.228,1.337 -0.37,1.74 -0.579,2.091 -0.854,2.39 -1.129,2.693 -1.471,2.926 -1.878,3.097 -2.296,3.267 -2.779,3.353 -3.329,3.353 -3.86,3.353 -4.354,3.248 -4.8,3.049 -5.245,2.845 -5.615,2.584 -5.928,2.257 -6.231,1.935 -6.469,1.574 -6.64,1.176 -6.811,0.782 -6.896,0.389 -6.896,0 Z m -6.896,-1.75 c 0,-0.498 0.105,-0.958 0.323,-1.371 0.227,-0.412 0.512,-0.763 0.863,-1.057 0.36,-0.289 0.769,-0.517 1.242,-0.678 0.465,-0.162 0.958,-0.242 1.461,-0.242 0.674,0 1.262,0.157 1.764,0.474 0.503,0.313 0.968,0.73 1.385,1.248 l 1.65,-1.262 c -1.214,-1.57 -2.911,-2.352 -5.093,-2.352 -0.91,0 -1.726,0.152 -2.466,0.46 -0.74,0.308 -1.356,0.73 -1.868,1.276 -0.512,0.54 -0.901,1.18 -1.177,1.915 -0.274,0.735 -0.417,1.532 -0.417,2.39 0,0.859 0.152,1.656 0.456,2.395 0.294,0.735 0.711,1.375 1.233,1.916 0.531,0.545 1.157,0.968 1.878,1.276 0.729,0.308 1.526,0.46 2.38,0.46 1.024,0 1.887,-0.176 2.59,-0.532 C 0.009,4.211 0.588,3.741 1.043,3.167 1.498,2.594 1.82,1.949 2.029,1.228 c 0.2,-0.721 0.304,-1.456 0.304,-2.2 V -1.75 Z"
             style="fill:#5f5f60;fill-opacity:1;fill-rule:nonzero;stroke:none"
             id="path3742"
             inkscape:connector-curvature="0" /></g><g
           id="g3744"
           transform="translate(45.6064,36.6323)"><path
             d="m 0,0 h 2.191 v -1.774 h 0.047 c 0.276,0.617 0.75,1.115 1.433,1.494 0.683,0.38 1.461,0.569 2.351,0.569 0.551,0 1.082,-0.085 1.594,-0.251 0.513,-0.171 0.958,-0.436 1.337,-0.792 0.38,-0.356 0.684,-0.811 0.911,-1.371 0.228,-0.559 0.341,-1.218 0.341,-1.977 v -7.407 h -2.19 v 6.8 c 0,0.531 -0.077,0.991 -0.218,1.37 -0.143,0.38 -0.342,0.688 -0.579,0.921 C 6.972,-2.182 6.696,-2.011 6.374,-1.907 6.061,-1.802 5.729,-1.75 5.396,-1.75 4.941,-1.75 4.515,-1.821 4.136,-1.968 3.747,-2.115 3.405,-2.343 3.111,-2.661 2.817,-2.974 2.59,-3.376 2.429,-3.86 2.268,-4.349 2.191,-4.922 2.191,-5.586 v -5.923 H 0 Z"
             style="fill:#5f5f60;fill-opacity:1;fill-rule:nonzero;stroke:none"
             id="path3746"
             inkscape:connector-curvature="0" /></g><g
           id="g3748"
           transform="translate(64.7178,34.7402)"><path
             d="m 0,0 h -3.13 v -5.221 c 0,-0.327 0.01,-0.645 0.019,-0.963 0.019,-0.313 0.076,-0.598 0.19,-0.849 0.105,-0.251 0.266,-0.45 0.483,-0.607 0.218,-0.152 0.542,-0.228 0.959,-0.228 0.255,0 0.521,0.024 0.796,0.072 0.275,0.047 0.532,0.137 0.759,0.265 v -1.991 c -0.265,-0.143 -0.597,-0.247 -1.006,-0.304 -0.417,-0.052 -0.739,-0.081 -0.966,-0.081 -0.835,0 -1.49,0.114 -1.955,0.351 -0.455,0.233 -0.796,0.536 -1.014,0.911 -0.219,0.37 -0.352,0.787 -0.389,1.247 -0.038,0.465 -0.066,0.929 -0.066,1.399 V 0 h -2.524 v 1.892 h 2.524 v 3.229 h 2.19 V 1.892 H 0 Z"
             style="fill:#5f5f60;fill-opacity:1;fill-rule:nonzero;stroke:none"
             id="path3750"
             inkscape:connector-curvature="0" /></g><g
           id="g3752"
           transform="translate(66.9746,36.6323)"><path
             d="m 0,0 h 2.182 v -1.774 h 0.047 c 0.152,0.309 0.341,0.588 0.588,0.839 0.238,0.252 0.512,0.465 0.816,0.641 0.294,0.18 0.626,0.322 0.976,0.427 0.362,0.104 0.712,0.156 1.073,0.156 0.35,0 0.682,-0.047 0.967,-0.142 L 6.554,-2.21 C 6.374,-2.163 6.193,-2.12 6.023,-2.087 5.843,-2.058 5.663,-2.04 5.482,-2.04 4.42,-2.04 3.604,-2.338 3.035,-2.94 2.467,-3.538 2.182,-4.467 2.182,-5.729 v -5.78 H 0 Z"
             style="fill:#5f5f60;fill-opacity:1;fill-rule:nonzero;stroke:none"
             id="path3754"
             inkscape:connector-curvature="0" /></g><g
           id="g3756"
           transform="translate(76.7344,30.875)"><path
             d="m 0,0 c 0,-0.579 0.095,-1.119 0.266,-1.612 0.18,-0.493 0.436,-0.915 0.758,-1.262 0.323,-0.351 0.721,-0.626 1.186,-0.825 0.475,-0.204 0.996,-0.303 1.584,-0.303 0.578,0 1.1,0.099 1.574,0.303 0.465,0.199 0.863,0.474 1.186,0.825 0.332,0.347 0.578,0.769 0.758,1.262 C 7.493,-1.119 7.578,-0.579 7.578,0 7.578,0.583 7.493,1.124 7.312,1.617 7.132,2.11 6.886,2.532 6.554,2.879 6.231,3.229 5.833,3.504 5.368,3.704 4.894,3.908 4.372,4.007 3.794,4.007 3.206,4.007 2.685,3.908 2.21,3.704 1.745,3.504 1.347,3.229 1.024,2.879 0.702,2.532 0.446,2.11 0.266,1.617 0.095,1.124 0,0.583 0,0 m -2.333,0 c 0,0.844 0.161,1.627 0.475,2.357 0.322,0.73 0.749,1.366 1.298,1.92 0.55,0.551 1.206,0.982 1.945,1.295 0.749,0.318 1.546,0.474 2.409,0.474 0.853,0 1.65,-0.156 2.399,-0.474 C 6.934,5.259 7.588,4.828 8.138,4.277 8.688,3.723 9.114,3.087 9.438,2.357 9.75,1.627 9.911,0.844 9.911,0 9.911,-0.839 9.75,-1.626 9.438,-2.366 9.114,-3.101 8.688,-3.741 8.138,-4.282 7.588,-4.827 6.934,-5.254 6.193,-5.572 5.444,-5.885 4.647,-6.042 3.794,-6.042 c -0.863,0 -1.66,0.157 -2.409,0.47 -0.739,0.318 -1.395,0.745 -1.945,1.29 -0.549,0.541 -0.976,1.181 -1.298,1.916 -0.314,0.74 -0.475,1.527 -0.475,2.366"
             style="fill:#5f5f60;fill-opacity:1;fill-rule:nonzero;stroke:none"
             id="path3758"
             inkscape:connector-curvature="0" /></g><g
           id="g3760"
           transform="translate(100.5781,26.8726)"><path
             d="M 0,0 C 0.588,0 1.109,0.1 1.574,0.304 2.049,0.503 2.447,0.778 2.77,1.129 3.092,1.475 3.339,1.897 3.519,2.39 3.699,2.883 3.784,3.424 3.784,4.002 3.784,4.586 3.699,5.126 3.519,5.62 3.339,6.113 3.092,6.535 2.77,6.881 2.447,7.232 2.049,7.507 1.574,7.706 1.109,7.91 0.588,8.01 0,8.01 -0.578,8.01 -1.109,7.91 -1.574,7.706 -2.049,7.507 -2.447,7.232 -2.77,6.881 -3.092,6.535 -3.339,6.113 -3.519,5.62 -3.699,5.126 -3.784,4.586 -3.784,4.002 -3.784,3.424 -3.699,2.883 -3.519,2.39 -3.339,1.897 -3.092,1.475 -2.77,1.129 -2.447,0.778 -2.049,0.503 -1.574,0.304 -1.109,0.1 -0.578,0 0,0 M 5.976,-1.75 H 3.784 V -0.1 H 3.737 C 3.319,-0.716 2.741,-1.19 2.001,-1.532 1.271,-1.873 0.512,-2.039 -0.266,-2.039 c -0.891,0 -1.697,0.152 -2.418,0.46 -0.721,0.308 -1.337,0.735 -1.84,1.285 -0.512,0.55 -0.911,1.19 -1.186,1.921 -0.274,0.725 -0.407,1.517 -0.407,2.375 0,0.859 0.133,1.656 0.407,2.395 0.275,0.735 0.674,1.375 1.186,1.916 0.503,0.545 1.119,0.968 1.84,1.276 0.721,0.308 1.527,0.46 2.418,0.46 0.826,0 1.603,-0.171 2.333,-0.522 0.721,-0.346 1.281,-0.82 1.67,-1.418 h 0.047 v 8.498 h 2.192 z"
             style="fill:#5f5f60;fill-opacity:1;fill-rule:nonzero;stroke:none"
             id="path3762"
             inkscape:connector-curvature="0" /></g><g
           id="g3764"
           transform="translate(117.8398,31.8237)"><path
             d="M 0,0 C -0.02,0.488 -0.095,0.929 -0.228,1.337 -0.37,1.74 -0.579,2.091 -0.854,2.39 -1.129,2.693 -1.471,2.926 -1.878,3.097 -2.295,3.267 -2.779,3.353 -3.329,3.353 -3.86,3.353 -4.354,3.248 -4.799,3.049 -5.245,2.845 -5.615,2.584 -5.928,2.257 -6.231,1.935 -6.469,1.574 -6.64,1.176 -6.81,0.782 -6.896,0.389 -6.896,0 Z m -6.896,-1.75 c 0,-0.498 0.105,-0.958 0.323,-1.371 0.228,-0.412 0.512,-0.763 0.863,-1.057 0.36,-0.289 0.769,-0.517 1.242,-0.678 0.465,-0.162 0.958,-0.242 1.461,-0.242 0.674,0 1.262,0.157 1.765,0.474 0.502,0.313 0.967,0.73 1.385,1.248 l 1.649,-1.262 c -1.214,-1.57 -2.911,-2.352 -5.093,-2.352 -0.91,0 -1.726,0.152 -2.466,0.46 -0.74,0.308 -1.356,0.73 -1.868,1.276 -0.512,0.54 -0.901,1.18 -1.177,1.915 -0.274,0.735 -0.417,1.532 -0.417,2.39 0,0.859 0.152,1.656 0.456,2.395 0.294,0.735 0.711,1.375 1.233,1.916 0.531,0.545 1.157,0.968 1.878,1.276 0.73,0.308 1.526,0.46 2.38,0.46 1.024,0 1.887,-0.176 2.59,-0.532 C 0.01,4.211 0.588,3.741 1.043,3.167 1.498,2.594 1.821,1.949 2.029,1.228 c 0.2,-0.721 0.304,-1.456 0.304,-2.2 V -1.75 Z"
             style="fill:#5f5f60;fill-opacity:1;fill-rule:nonzero;stroke:none"
             id="path3766"
             inkscape:connector-curvature="0" /></g><g
           id="g3768"
           transform="translate(138.5537,31.4111)"><path
             d="M 0,0 -3.206,7.891 H -3.253 L -6.507,0 Z m -4.173,10.902 h 2.106 L 5.292,-6.288 H 2.57 l -1.726,4.249 h -8.176 l -1.697,-4.249 h -2.722 z"
             style="fill:#5f5f60;fill-opacity:1;fill-rule:nonzero;stroke:none"
             id="path3770"
             inkscape:connector-curvature="0" /></g><g
           id="g3772"
           transform="translate(151.082,33.7441)"><path
             d="m 0,0 c -0.256,0.322 -0.578,0.593 -0.958,0.811 -0.379,0.218 -0.844,0.327 -1.394,0.327 -0.521,0 -0.967,-0.109 -1.346,-0.327 -0.39,-0.218 -0.579,-0.536 -0.579,-0.958 0,-0.341 0.114,-0.617 0.332,-0.825 0.218,-0.214 0.474,-0.38 0.778,-0.512 0.294,-0.128 0.616,-0.228 0.957,-0.289 0.342,-0.067 0.636,-0.124 0.873,-0.171 0.475,-0.114 0.91,-0.252 1.328,-0.413 0.407,-0.161 0.768,-0.374 1.062,-0.63 0.303,-0.262 0.541,-0.575 0.712,-0.949 0.161,-0.37 0.246,-0.825 0.246,-1.361 0,-0.645 -0.133,-1.2 -0.407,-1.66 -0.276,-0.464 -0.636,-0.839 -1.073,-1.128 -0.436,-0.294 -0.929,-0.503 -1.489,-0.631 -0.56,-0.133 -1.119,-0.195 -1.688,-0.195 -0.958,0 -1.792,0.143 -2.513,0.437 -0.721,0.289 -1.365,0.825 -1.935,1.602 l 1.659,1.357 c 0.352,-0.356 0.75,-0.669 1.186,-0.944 0.436,-0.275 0.968,-0.413 1.603,-0.413 0.275,0 0.55,0.029 0.834,0.086 0.286,0.052 0.541,0.142 0.759,0.265 0.219,0.119 0.39,0.275 0.532,0.46 0.132,0.186 0.209,0.404 0.209,0.645 0,0.323 -0.105,0.588 -0.304,0.802 -0.209,0.209 -0.446,0.375 -0.731,0.498 -0.284,0.118 -0.588,0.218 -0.9,0.289 -0.314,0.076 -0.598,0.133 -0.835,0.185 -0.475,0.109 -0.92,0.242 -1.337,0.389 -0.418,0.142 -0.797,0.336 -1.119,0.578 -0.323,0.247 -0.579,0.55 -0.778,0.925 -0.19,0.37 -0.285,0.835 -0.285,1.385 0,0.597 0.123,1.119 0.371,1.565 0.255,0.446 0.587,0.816 0.995,1.105 0.418,0.289 0.882,0.512 1.413,0.654 C -3.3,3.106 -2.77,3.177 -2.238,3.177 -1.46,3.177 -0.711,3.035 0,2.741 0.712,2.452 1.28,1.963 1.698,1.285 Z"
             style="fill:#5f5f60;fill-opacity:1;fill-rule:nonzero;stroke:none"
             id="path3774"
             inkscape:connector-curvature="0" /></g><g
           id="g3776"
           transform="translate(163.7246,31.8237)"><path
             d="M 0,0 C -0.009,0.488 -0.085,0.929 -0.228,1.337 -0.36,1.74 -0.568,2.091 -0.844,2.39 -1.119,2.693 -1.46,2.926 -1.878,3.097 c -0.407,0.17 -0.891,0.256 -1.441,0.256 -0.54,0 -1.025,-0.105 -1.47,-0.304 C -5.235,2.845 -5.614,2.584 -5.918,2.257 -6.23,1.935 -6.468,1.574 -6.639,1.176 -6.81,0.782 -6.895,0.389 -6.895,0 Z m -6.895,-1.75 c 0,-0.498 0.114,-0.958 0.333,-1.371 0.217,-0.412 0.501,-0.763 0.863,-1.057 0.35,-0.289 0.767,-0.517 1.232,-0.678 0.475,-0.162 0.958,-0.242 1.461,-0.242 0.683,0 1.271,0.157 1.774,0.474 0.503,0.313 0.958,0.73 1.384,1.248 L 1.803,-4.638 C 0.589,-6.208 -1.109,-6.99 -3.3,-6.99 c -0.901,0 -1.726,0.152 -2.466,0.46 -0.73,0.308 -1.356,0.73 -1.869,1.276 -0.502,0.54 -0.9,1.18 -1.176,1.915 -0.275,0.735 -0.408,1.532 -0.408,2.39 0,0.859 0.143,1.656 0.447,2.395 0.303,0.735 0.71,1.375 1.242,1.916 0.521,0.545 1.147,0.968 1.878,1.276 0.73,0.308 1.517,0.46 2.381,0.46 1.014,0 1.877,-0.176 2.579,-0.532 C 0.02,4.211 0.598,3.741 1.053,3.167 1.499,2.594 1.831,1.949 2.03,1.228 2.238,0.507 2.334,-0.228 2.334,-0.972 V -1.75 Z"
             style="fill:#5f5f60;fill-opacity:1;fill-rule:nonzero;stroke:none"
             id="path3778"
             inkscape:connector-curvature="0" /></g><g
           id="g3780"
           transform="translate(174.2432,33.7441)"><path
             d="m 0,0 c -0.256,0.322 -0.578,0.593 -0.958,0.811 -0.379,0.218 -0.844,0.327 -1.395,0.327 -0.521,0 -0.966,-0.109 -1.346,-0.327 -0.389,-0.218 -0.578,-0.536 -0.578,-0.958 0,-0.341 0.113,-0.617 0.332,-0.825 0.217,-0.214 0.473,-0.38 0.777,-0.512 0.294,-0.128 0.617,-0.228 0.958,-0.289 0.342,-0.067 0.636,-0.124 0.873,-0.171 0.474,-0.114 0.91,-0.252 1.327,-0.413 0.408,-0.161 0.769,-0.374 1.063,-0.63 0.303,-0.262 0.541,-0.575 0.711,-0.949 0.162,-0.37 0.247,-0.825 0.247,-1.361 0,-0.645 -0.133,-1.2 -0.408,-1.66 -0.275,-0.464 -0.635,-0.839 -1.072,-1.128 -0.436,-0.294 -0.929,-0.503 -1.489,-0.631 -0.56,-0.133 -1.119,-0.195 -1.688,-0.195 -0.958,0 -1.792,0.143 -2.513,0.437 -0.721,0.289 -1.366,0.825 -1.936,1.602 l 1.66,1.357 c 0.351,-0.356 0.749,-0.669 1.186,-0.944 0.436,-0.275 0.968,-0.413 1.603,-0.413 0.275,0 0.55,0.029 0.834,0.086 0.285,0.052 0.541,0.142 0.759,0.265 0.218,0.119 0.389,0.275 0.532,0.46 0.132,0.186 0.209,0.404 0.209,0.645 0,0.323 -0.105,0.588 -0.304,0.802 -0.209,0.209 -0.446,0.375 -0.731,0.498 -0.284,0.118 -0.588,0.218 -0.901,0.289 -0.313,0.076 -0.598,0.133 -0.834,0.185 -0.475,0.109 -0.92,0.242 -1.338,0.389 -0.417,0.142 -0.797,0.336 -1.119,0.578 -0.322,0.247 -0.578,0.55 -0.777,0.925 -0.19,0.37 -0.286,0.835 -0.286,1.385 0,0.597 0.124,1.119 0.371,1.565 0.255,0.446 0.587,0.816 0.996,1.105 0.417,0.289 0.881,0.512 1.413,0.654 0.521,0.147 1.052,0.218 1.584,0.218 C -1.461,3.177 -0.711,3.035 0,2.741 0.711,2.452 1.28,1.963 1.697,1.285 Z"
             style="fill:#5f5f60;fill-opacity:1;fill-rule:nonzero;stroke:none"
             id="path3782"
             inkscape:connector-curvature="0" /></g><g
           id="g3784"
           transform="translate(180.1143,30.875)"><path
             d="M 0,0 C 0,-0.579 0.095,-1.119 0.266,-1.612 0.445,-2.105 0.701,-2.527 1.024,-2.874 1.347,-3.225 1.745,-3.5 2.21,-3.699 c 0.474,-0.204 0.995,-0.303 1.584,-0.303 0.578,0 1.1,0.099 1.574,0.303 0.465,0.199 0.863,0.474 1.186,0.825 0.332,0.347 0.578,0.769 0.758,1.262 0.18,0.493 0.266,1.033 0.266,1.612 0,0.583 -0.086,1.124 -0.266,1.617 C 7.132,2.11 6.886,2.532 6.554,2.879 6.231,3.229 5.833,3.504 5.368,3.704 4.894,3.908 4.372,4.007 3.794,4.007 3.205,4.007 2.684,3.908 2.21,3.704 1.745,3.504 1.347,3.229 1.024,2.879 0.701,2.532 0.445,2.11 0.266,1.617 0.095,1.124 0,0.583 0,0 m -2.333,0 c 0,0.844 0.161,1.627 0.474,2.357 0.322,0.73 0.749,1.366 1.299,1.92 0.55,0.551 1.205,0.982 1.945,1.295 C 2.134,5.89 2.931,6.046 3.794,6.046 4.647,6.046 5.443,5.89 6.193,5.572 6.933,5.259 7.587,4.828 8.138,4.277 8.688,3.723 9.114,3.087 9.437,2.357 9.75,1.627 9.911,0.844 9.911,0 9.911,-0.839 9.75,-1.626 9.437,-2.366 9.114,-3.101 8.688,-3.741 8.138,-4.282 7.587,-4.827 6.933,-5.254 6.193,-5.572 c -0.75,-0.313 -1.546,-0.47 -2.399,-0.47 -0.863,0 -1.66,0.157 -2.409,0.47 -0.74,0.318 -1.395,0.745 -1.945,1.29 -0.55,0.541 -0.977,1.181 -1.299,1.916 -0.313,0.74 -0.474,1.527 -0.474,2.366"
             style="fill:#5f5f60;fill-opacity:1;fill-rule:nonzero;stroke:none"
             id="path3786"
             inkscape:connector-curvature="0" /></g><g
           id="g3788"
           transform="translate(192.207,36.6323)"><path
             d="m 0,0 h 2.19 v -1.774 h 0.048 c 0.142,0.309 0.341,0.588 0.578,0.839 0.247,0.252 0.512,0.465 0.816,0.641 0.304,0.18 0.626,0.322 0.986,0.427 0.352,0.104 0.712,0.156 1.063,0.156 0.36,0 0.682,-0.047 0.976,-0.142 L 6.562,-2.21 c -0.179,0.047 -0.36,0.09 -0.54,0.123 -0.18,0.029 -0.351,0.047 -0.531,0.047 -1.072,0 -1.887,-0.298 -2.457,-0.9 C 2.475,-3.538 2.19,-4.467 2.19,-5.729 v -5.78 H 0 Z"
             style="fill:#5f5f60;fill-opacity:1;fill-rule:nonzero;stroke:none"
             id="path3790"
             inkscape:connector-curvature="0" /></g><path
           d="m 200.809,36.632 h 2.182 V 25.123 h -2.182 z m 2.01,5.681 h 3.112 l -3.623,-3.495 h -2.011 z"
           style="fill:#5f5f60;fill-opacity:1;fill-rule:nonzero;stroke:none"
           id="path3792"
           inkscape:connector-curvature="0" /><g
           id="g3794"
           transform="translate(212.124,30.6572)"><path
             d="m 0,0 c -0.521,0 -1.053,-0.029 -1.594,-0.085 -0.54,-0.058 -1.034,-0.166 -1.479,-0.328 -0.446,-0.161 -0.816,-0.389 -1.091,-0.678 -0.284,-0.289 -0.427,-0.664 -0.427,-1.119 0,-0.664 0.218,-1.138 0.664,-1.432 0.446,-0.29 1.053,-0.437 1.812,-0.437 0.597,0 1.109,0.1 1.527,0.304 0.427,0.204 0.759,0.465 1.024,0.792 0.256,0.322 0.446,0.683 0.559,1.076 0.114,0.399 0.171,0.792 0.171,1.181 l 0,0.726 z m -6.175,4.566 c 0.616,0.565 1.328,0.992 2.144,1.276 0.806,0.28 1.612,0.422 2.427,0.422 0.835,0 1.566,-0.104 2.172,-0.313 C 1.176,5.738 1.669,5.458 2.058,5.103 2.446,4.742 2.74,4.334 2.921,3.874 3.11,3.414 3.205,2.931 3.205,2.428 v -5.876 c 0,-0.403 0,-0.778 0.02,-1.114 C 3.243,-4.904 3.263,-5.226 3.3,-5.534 H 1.356 C 1.309,-4.951 1.28,-4.368 1.28,-3.785 H 1.232 c -0.483,-0.744 -1.061,-1.27 -1.725,-1.579 -0.664,-0.308 -1.433,-0.46 -2.305,-0.46 -0.531,0 -1.044,0.072 -1.527,0.219 -0.484,0.142 -0.91,0.36 -1.271,0.654 -0.37,0.289 -0.654,0.65 -0.863,1.081 -0.209,0.427 -0.322,0.925 -0.322,1.494 0,0.745 0.17,1.366 0.502,1.868 0.332,0.503 0.787,0.911 1.356,1.224 0.579,0.318 1.252,0.545 2.021,0.683 0.768,0.137 1.584,0.204 2.465,0.204 H 1.166 V 2.091 C 1.166,2.38 1.109,2.674 0.995,2.964 0.882,3.253 0.711,3.519 0.483,3.751 0.256,3.988 -0.028,4.173 -0.37,4.311 -0.712,4.448 -1.11,4.519 -1.584,4.519 -2.002,4.519 -2.371,4.477 -2.685,4.396 -2.997,4.315 -3.291,4.216 -3.548,4.092 -3.804,3.969 -4.041,3.832 -4.249,3.666 -4.468,3.504 -4.667,3.353 -4.856,3.206 Z"
             style="fill:#5f5f60;fill-opacity:1;fill-rule:nonzero;stroke:none"
             id="path3796"
             inkscape:connector-curvature="0" /></g><g
           id="g3798"
           transform="translate(224.7002,42.3135)"><path
             d="m 0,0 h 2.323 v -15.004 h 7.892 V -17.19 L 0,-17.19 Z"
             style="fill:#5f5f60;fill-opacity:1;fill-rule:nonzero;stroke:none"
             id="path3800"
             inkscape:connector-curvature="0" /></g><g
           id="g3802"
           transform="translate(244.7217,31.8237)"><path
             d="M 0,0 C -0.01,0.488 -0.086,0.929 -0.228,1.337 -0.36,1.74 -0.569,2.091 -0.845,2.39 -1.119,2.693 -1.461,2.926 -1.878,3.097 -2.286,3.267 -2.77,3.353 -3.319,3.353 -3.86,3.353 -4.344,3.248 -4.79,3.049 -5.235,2.845 -5.615,2.584 -5.918,2.257 -6.231,1.935 -6.469,1.574 -6.64,1.176 -6.81,0.782 -6.896,0.389 -6.896,0 Z m -6.896,-1.75 c 0,-0.498 0.115,-0.958 0.333,-1.371 0.218,-0.412 0.502,-0.763 0.863,-1.057 0.35,-0.289 0.768,-0.517 1.232,-0.678 0.475,-0.162 0.958,-0.242 1.461,-0.242 0.683,0 1.272,0.157 1.774,0.474 0.503,0.313 0.958,0.73 1.384,1.248 l 1.651,-1.262 c -1.214,-1.57 -2.911,-2.352 -5.103,-2.352 -0.901,0 -1.726,0.152 -2.466,0.46 -0.73,0.308 -1.356,0.73 -1.868,1.276 -0.503,0.54 -0.901,1.18 -1.177,1.915 -0.274,0.735 -0.407,1.532 -0.407,2.39 0,0.859 0.142,1.656 0.446,2.395 0.303,0.735 0.711,1.375 1.243,1.916 0.521,0.545 1.147,0.968 1.877,1.276 0.73,0.308 1.517,0.46 2.381,0.46 1.014,0 1.877,-0.176 2.58,-0.532 C 0.019,4.211 0.598,3.741 1.053,3.167 1.498,2.594 1.83,1.949 2.029,1.228 2.238,0.507 2.333,-0.228 2.333,-0.972 V -1.75 Z"
             style="fill:#5f5f60;fill-opacity:1;fill-rule:nonzero;stroke:none"
             id="path3804"
             inkscape:connector-curvature="0" /></g><g
           id="g3806"
           transform="translate(254.6797,34.8823)"><path
             d="m 0,0 c -0.578,0 -1.109,-0.1 -1.574,-0.304 -0.474,-0.199 -0.872,-0.474 -1.195,-0.824 -0.323,-0.347 -0.569,-0.769 -0.75,-1.262 -0.179,-0.493 -0.265,-1.034 -0.265,-1.617 0,-1.162 0.342,-2.096 1.015,-2.803 0.683,-0.702 1.603,-1.057 2.769,-1.057 1.167,0 2.087,0.355 2.77,1.057 0.683,0.707 1.015,1.641 1.015,2.803 0,0.583 -0.086,1.124 -0.265,1.617 -0.181,0.493 -0.427,0.915 -0.75,1.262 -0.323,0.35 -0.721,0.625 -1.195,0.824 C 1.11,-0.1 0.589,0 0,0 m 5.976,-9.665 c 0,-0.872 -0.152,-1.669 -0.455,-2.39 -0.294,-0.72 -0.721,-1.341 -1.272,-1.868 -0.55,-0.527 -1.214,-0.934 -1.991,-1.228 -0.779,-0.289 -1.632,-0.436 -2.57,-0.436 -1.101,0 -2.116,0.156 -3.026,0.46 -0.911,0.308 -1.783,0.843 -2.608,1.602 l 1.479,1.85 c 0.57,-0.617 1.186,-1.081 1.85,-1.399 0.664,-0.313 1.413,-0.474 2.257,-0.474 0.806,0 1.479,0.118 2.01,0.355 0.532,0.233 0.958,0.536 1.281,0.911 0.313,0.369 0.531,0.796 0.664,1.271 0.133,0.479 0.19,0.962 0.19,1.446 v 1.698 H 3.719 C 3.291,-8.56 2.723,-9.077 2.002,-9.409 1.281,-9.741 0.531,-9.906 -0.266,-9.906 c -0.843,0 -1.621,0.151 -2.341,0.45 -0.721,0.299 -1.338,0.711 -1.86,1.238 -0.521,0.526 -0.92,1.147 -1.214,1.868 -0.294,0.721 -0.436,1.503 -0.436,2.343 0,0.844 0.133,1.631 0.408,2.371 0.274,0.735 0.673,1.38 1.186,1.93 0.502,0.55 1.119,0.977 1.839,1.285 0.721,0.308 1.528,0.46 2.418,0.46 0.779,0 1.537,-0.171 2.268,-0.507 C 2.741,1.19 3.32,0.711 3.737,0.1 h 0.048 v 1.65 h 2.191 z"
             style="fill:#5f5f60;fill-opacity:1;fill-rule:nonzero;stroke:none"
             id="path3808"
             inkscape:connector-curvature="0" /></g><g
           id="g3810"
           transform="translate(269.6182,30.6572)"><path
             d="m 0,0 c -0.521,0 -1.053,-0.029 -1.594,-0.085 -0.54,-0.058 -1.033,-0.166 -1.479,-0.328 -0.446,-0.161 -0.816,-0.389 -1.091,-0.678 -0.284,-0.289 -0.427,-0.664 -0.427,-1.119 0,-0.664 0.219,-1.138 0.664,-1.432 0.446,-0.29 1.053,-0.437 1.812,-0.437 0.597,0 1.109,0.1 1.527,0.304 0.427,0.204 0.759,0.465 1.025,0.792 0.255,0.322 0.445,0.683 0.559,1.076 0.113,0.399 0.17,0.792 0.17,1.181 l 0,0.726 z m -6.175,4.566 c 0.617,0.565 1.328,0.992 2.144,1.276 0.806,0.28 1.612,0.422 2.427,0.422 0.835,0 1.566,-0.104 2.172,-0.313 C 1.176,5.738 1.669,5.458 2.058,5.103 2.446,4.742 2.741,4.334 2.921,3.874 3.11,3.414 3.205,2.931 3.205,2.428 v -5.876 c 0,-0.403 0,-0.778 0.02,-1.114 0.018,-0.342 0.038,-0.664 0.076,-0.972 H 1.356 C 1.309,-4.951 1.28,-4.368 1.28,-3.785 H 1.232 c -0.483,-0.744 -1.061,-1.27 -1.725,-1.579 -0.664,-0.308 -1.433,-0.46 -2.305,-0.46 -0.531,0 -1.044,0.072 -1.527,0.219 -0.484,0.142 -0.91,0.36 -1.271,0.654 -0.37,0.289 -0.654,0.65 -0.863,1.081 -0.209,0.427 -0.322,0.925 -0.322,1.494 0,0.745 0.171,1.366 0.502,1.868 0.332,0.503 0.788,0.911 1.356,1.224 0.579,0.318 1.252,0.545 2.021,0.683 0.768,0.137 1.584,0.204 2.465,0.204 H 1.166 V 2.091 C 1.166,2.38 1.109,2.674 0.996,2.964 0.882,3.253 0.711,3.519 0.483,3.751 0.256,3.988 -0.028,4.173 -0.37,4.311 -0.712,4.448 -1.11,4.519 -1.584,4.519 -2.001,4.519 -2.371,4.477 -2.685,4.396 -2.997,4.315 -3.291,4.216 -3.548,4.092 -3.804,3.969 -4.041,3.832 -4.249,3.666 -4.468,3.504 -4.667,3.353 -4.856,3.206 Z"
             style="fill:#5f5f60;fill-opacity:1;fill-rule:nonzero;stroke:none"
             id="path3812"
             inkscape:connector-curvature="0" /></g><path
           d="m 275.612,43.48 h 2.182 V 25.123 h -2.182 z"
           style="fill:#5f5f60;fill-opacity:1;fill-rule:nonzero;stroke:none"
           id="path3814"
           inkscape:connector-curvature="0" /><g
           id="g3816"
           transform="translate(297.0273,31.4111)"><path
             d="M 0,0 -3.205,7.891 H -3.253 L -6.506,0 Z m -4.173,10.902 h 2.106 l 7.36,-17.19 H 2.57 l -1.725,4.249 h -8.176 l -1.697,-4.249 h -2.723 z"
             style="fill:#5f5f60;fill-opacity:1;fill-rule:nonzero;stroke:none"
             id="path3818"
             inkscape:connector-curvature="0" /></g><g
           id="g3820"
           transform="translate(303.4297,36.6323)"><path
             d="m 0,0 h 2.19 v -1.774 h 0.048 c 0.276,0.617 0.749,1.115 1.433,1.494 0.683,0.38 1.46,0.569 2.351,0.569 0.55,0 1.082,-0.085 1.593,-0.251 0.513,-0.171 0.958,-0.436 1.338,-0.792 0.379,-0.356 0.683,-0.811 0.91,-1.371 0.228,-0.559 0.342,-1.218 0.342,-1.977 v -7.407 H 8.014 v 6.8 c 0,0.531 -0.076,0.991 -0.218,1.37 -0.143,0.38 -0.342,0.688 -0.578,0.921 C 6.971,-2.182 6.695,-2.011 6.373,-1.907 6.061,-1.802 5.729,-1.75 5.396,-1.75 4.941,-1.75 4.515,-1.821 4.135,-1.968 3.746,-2.115 3.405,-2.343 3.111,-2.661 2.816,-2.974 2.589,-3.376 2.428,-3.86 2.267,-4.349 2.19,-4.922 2.19,-5.586 v -5.923 H 0 Z"
             style="fill:#5f5f60;fill-opacity:1;fill-rule:nonzero;stroke:none"
             id="path3822"
             inkscape:connector-curvature="0" /></g><g
           id="g3824"
           transform="translate(322.54,34.7402)"><path
             d="m 0,0 h -3.13 v -5.221 c 0,-0.327 0.01,-0.645 0.02,-0.963 0.018,-0.313 0.076,-0.598 0.189,-0.849 0.105,-0.251 0.266,-0.45 0.483,-0.607 0.219,-0.152 0.542,-0.228 0.959,-0.228 0.256,0 0.522,0.024 0.796,0.072 0.276,0.047 0.532,0.137 0.759,0.265 v -1.991 c -0.265,-0.143 -0.597,-0.247 -1.005,-0.304 -0.418,-0.052 -0.74,-0.081 -0.967,-0.081 -0.835,0 -1.49,0.114 -1.955,0.351 -0.455,0.233 -0.795,0.536 -1.014,0.911 -0.218,0.37 -0.351,0.787 -0.389,1.247 -0.038,0.465 -0.066,0.929 -0.066,1.399 V 0 h -2.523 v 1.892 h 2.523 v 3.229 h 2.19 V 1.892 H 0 Z"
             style="fill:#5f5f60;fill-opacity:1;fill-rule:nonzero;stroke:none"
             id="path3826"
             inkscape:connector-curvature="0" /></g><path
           d="m 324.969,36.632 h 2.19 V 25.123 h -2.19 z m -0.513,4.126 c 0,0.436 0.161,0.816 0.475,1.129 0.322,0.317 0.692,0.474 1.129,0.474 0.445,0 0.815,-0.157 1.127,-0.474 0.323,-0.313 0.475,-0.693 0.475,-1.129 0,-0.436 -0.152,-0.811 -0.475,-1.129 -0.312,-0.313 -0.682,-0.474 -1.127,-0.474 -0.437,0 -0.807,0.161 -1.129,0.474 -0.314,0.318 -0.475,0.693 -0.475,1.129"
           style="fill:#5f5f60;fill-opacity:1;fill-rule:nonzero;stroke:none"
           id="path3828"
           inkscape:connector-curvature="0" /><g
           id="g3830"
           transform="translate(338.3037,33.5732)"><path
             d="M 0,0 C -0.408,0.417 -0.835,0.74 -1.28,0.958 -1.727,1.176 -2.258,1.285 -2.864,1.285 -3.472,1.285 -3.993,1.176 -4.438,0.958 -4.875,0.74 -5.255,0.441 -5.549,0.062 -5.853,-0.322 -6.08,-0.759 -6.231,-1.252 c -0.152,-0.493 -0.228,-1.005 -0.228,-1.541 0,-0.536 0.085,-1.039 0.266,-1.518 0.179,-0.479 0.426,-0.896 0.749,-1.251 0.322,-0.356 0.711,-0.636 1.167,-0.835 0.455,-0.204 0.966,-0.304 1.526,-0.304 0.617,0 1.147,0.11 1.584,0.328 0.437,0.218 0.845,0.536 1.214,0.957 L 1.603,-6.971 C 1.033,-7.602 0.37,-8.052 -0.38,-8.327 -1.129,-8.602 -1.926,-8.74 -2.77,-8.74 c -0.891,0 -1.707,0.143 -2.437,0.437 -0.74,0.289 -1.375,0.697 -1.906,1.223 -0.541,0.526 -0.949,1.157 -1.243,1.897 -0.294,0.735 -0.436,1.546 -0.436,2.437 0,0.892 0.142,1.708 0.436,2.452 0.294,0.745 0.702,1.385 1.223,1.921 0.531,0.531 1.157,0.948 1.898,1.247 0.739,0.303 1.554,0.45 2.465,0.45 0.844,0 1.641,-0.147 2.418,-0.45 C 0.417,2.575 1.081,2.12 1.65,1.503 Z"
             style="fill:#5f5f60;fill-opacity:1;fill-rule:nonzero;stroke:none"
             id="path3832"
             inkscape:connector-curvature="0" /></g><g
           id="g3834"
           transform="translate(342.9883,30.875)"><path
             d="m 0,0 c 0,-0.579 0.086,-1.119 0.266,-1.612 0.18,-0.493 0.427,-0.915 0.75,-1.262 0.322,-0.351 0.72,-0.626 1.194,-0.825 0.465,-0.204 0.996,-0.303 1.575,-0.303 0.588,0 1.11,0.099 1.574,0.303 0.474,0.199 0.872,0.474 1.196,0.825 0.322,0.347 0.568,0.769 0.749,1.262 C 7.483,-1.119 7.569,-0.579 7.569,0 7.569,0.583 7.483,1.124 7.304,1.617 7.123,2.11 6.877,2.532 6.555,2.879 6.231,3.229 5.833,3.504 5.359,3.704 4.895,3.908 4.373,4.007 3.785,4.007 3.206,4.007 2.675,3.908 2.21,3.704 1.736,3.504 1.338,3.229 1.016,2.879 0.693,2.532 0.446,2.11 0.266,1.617 0.086,1.124 0,0.583 0,0 m -2.333,0 c 0,0.844 0.161,1.627 0.475,2.357 0.312,0.73 0.749,1.366 1.299,1.92 0.55,0.551 1.195,0.982 1.944,1.295 0.74,0.318 1.547,0.474 2.4,0.474 0.862,0 1.659,-0.156 2.408,-0.474 C 6.934,5.259 7.578,4.828 8.129,4.277 8.679,3.723 9.115,3.087 9.428,2.357 9.75,1.627 9.902,0.844 9.902,0 9.902,-0.839 9.75,-1.626 9.428,-2.366 9.115,-3.101 8.679,-3.741 8.129,-4.282 7.578,-4.827 6.934,-5.254 6.193,-5.572 5.444,-5.885 4.647,-6.042 3.785,-6.042 c -0.853,0 -1.66,0.157 -2.4,0.47 -0.749,0.318 -1.394,0.745 -1.944,1.29 -0.55,0.541 -0.987,1.181 -1.299,1.916 -0.314,0.74 -0.475,1.527 -0.475,2.366"
             style="fill:#5f5f60;fill-opacity:1;fill-rule:nonzero;stroke:none"
             id="path3836"
             inkscape:connector-curvature="0" /></g><g
           id="g3838"
           transform="translate(355.0811,36.6323)"><path
             d="m 0,0 h 2.182 v -1.774 h 0.047 c 0.152,0.309 0.341,0.588 0.588,0.839 0.238,0.252 0.512,0.465 0.816,0.641 0.294,0.18 0.626,0.322 0.976,0.427 0.361,0.104 0.712,0.156 1.073,0.156 0.35,0 0.682,-0.047 0.966,-0.142 L 6.554,-2.21 C 6.374,-2.163 6.193,-2.12 6.022,-2.087 5.843,-2.058 5.662,-2.04 5.482,-2.04 4.42,-2.04 3.604,-2.338 3.035,-2.94 2.466,-3.538 2.182,-4.467 2.182,-5.729 v -5.78 H 0 Z"
             style="fill:#5f5f60;fill-opacity:1;fill-rule:nonzero;stroke:none"
             id="path3840"
             inkscape:connector-curvature="0" /></g><g
           id="g3842"
           transform="translate(363.5039,36.6323)"><path
             d="m 0,0 h 2.181 v -1.774 h 0.048 c 0.151,0.309 0.341,0.588 0.587,0.839 0.238,0.252 0.512,0.465 0.816,0.641 0.294,0.18 0.626,0.322 0.977,0.427 0.361,0.104 0.711,0.156 1.072,0.156 0.35,0 0.682,-0.047 0.967,-0.142 L 6.553,-2.21 c -0.18,0.047 -0.361,0.09 -0.531,0.123 -0.18,0.029 -0.36,0.047 -0.541,0.047 -1.062,0 -1.877,-0.298 -2.447,-0.9 C 2.466,-3.538 2.181,-4.467 2.181,-5.729 v -5.78 H 0 Z"
             style="fill:#5f5f60;fill-opacity:1;fill-rule:nonzero;stroke:none"
             id="path3844"
             inkscape:connector-curvature="0" /></g><g
           id="g3846"
           transform="translate(382.1309,25.123)"><path
             d="M 0,0 H -2.191 V 1.773 H -2.238 C -2.514,1.157 -2.987,0.659 -3.671,0.28 c -0.683,-0.38 -1.47,-0.57 -2.351,-0.57 -0.57,0 -1.101,0.081 -1.604,0.252 -0.502,0.171 -0.948,0.436 -1.327,0.792 -0.38,0.355 -0.684,0.811 -0.911,1.371 -0.228,0.559 -0.341,1.218 -0.341,1.977 v 7.407 h 2.19 v -6.8 c 0,-0.531 0.067,-0.991 0.219,-1.371 0.142,-0.379 0.341,-0.687 0.578,-0.924 0.247,-0.233 0.522,-0.403 0.844,-0.508 0.313,-0.104 0.636,-0.156 0.978,-0.156 0.455,0 0.872,0.071 1.26,0.218 0.39,0.142 0.731,0.374 1.025,0.692 0.294,0.313 0.512,0.716 0.683,1.2 0.161,0.484 0.237,1.062 0.237,1.726 v 5.923 H 0 Z"
             style="fill:#5f5f60;fill-opacity:1;fill-rule:nonzero;stroke:none"
             id="path3848"
             inkscape:connector-curvature="0" /></g><g
           id="g3850"
           transform="translate(390.8467,34.8823)"><path
             d="m 0,0 c -0.588,0 -1.109,-0.1 -1.584,-0.304 -0.465,-0.199 -0.862,-0.474 -1.186,-0.824 -0.322,-0.347 -0.578,-0.769 -0.758,-1.262 -0.17,-0.493 -0.266,-1.034 -0.266,-1.617 0,-0.579 0.096,-1.119 0.266,-1.613 0.18,-0.493 0.436,-0.915 0.758,-1.261 0.324,-0.351 0.721,-0.626 1.186,-0.825 C -1.109,-7.91 -0.588,-8.01 0,-8.01 c 0.579,0 1.101,0.1 1.574,0.304 0.465,0.199 0.864,0.474 1.186,0.825 0.332,0.346 0.579,0.768 0.759,1.261 0.18,0.494 0.265,1.034 0.265,1.613 0,0.583 -0.085,1.124 -0.265,1.617 -0.18,0.493 -0.427,0.915 -0.759,1.262 -0.322,0.35 -0.721,0.625 -1.186,0.824 C 1.101,-0.1 0.579,0 0,0 m -5.975,1.75 h 2.181 V 0.1 h 0.048 c 0.427,0.611 1.005,1.09 1.735,1.432 0.74,0.336 1.499,0.507 2.277,0.507 0.891,0 1.698,-0.152 2.409,-0.46 C 3.396,1.271 4.012,0.844 4.524,0.294 5.036,-0.256 5.425,-0.901 5.7,-1.636 5.976,-2.376 6.117,-3.163 6.117,-4.007 6.117,-4.866 5.976,-5.662 5.7,-6.397 5.425,-7.132 5.036,-7.772 4.524,-8.313 4.012,-8.858 3.396,-9.28 2.675,-9.589 c -0.711,-0.308 -1.518,-0.46 -2.409,-0.46 -0.826,0 -1.603,0.171 -2.333,0.522 -0.731,0.346 -1.29,0.82 -1.679,1.418 h -0.048 v -8.498 h -2.181 z"
             style="fill:#5f5f60;fill-opacity:1;fill-rule:nonzero;stroke:none"
             id="path3852"
             inkscape:connector-curvature="0" /></g><g
           id="g3854"
           transform="translate(407.3779,33.5732)"><path
             d="m 0,0 c -0.407,0.417 -0.835,0.74 -1.28,0.958 -0.446,0.218 -0.977,0.327 -1.584,0.327 -0.607,0 -1.129,-0.109 -1.574,-0.327 -0.437,-0.218 -0.816,-0.517 -1.11,-0.896 -0.304,-0.384 -0.531,-0.821 -0.683,-1.314 -0.152,-0.493 -0.228,-1.005 -0.228,-1.541 0,-0.536 0.086,-1.039 0.266,-1.518 0.18,-0.479 0.426,-0.896 0.749,-1.251 0.323,-0.356 0.712,-0.636 1.167,-0.835 0.455,-0.204 0.967,-0.304 1.527,-0.304 0.616,0 1.147,0.11 1.584,0.328 0.436,0.218 0.844,0.536 1.214,0.957 L 1.603,-6.971 C 1.034,-7.602 0.37,-8.052 -0.379,-8.327 -1.129,-8.602 -1.925,-8.74 -2.77,-8.74 c -0.891,0 -1.707,0.143 -2.437,0.437 -0.739,0.289 -1.375,0.697 -1.906,1.223 -0.54,0.526 -0.949,1.157 -1.242,1.897 -0.294,0.735 -0.437,1.546 -0.437,2.437 0,0.892 0.143,1.708 0.437,2.452 0.293,0.745 0.702,1.385 1.223,1.921 0.531,0.531 1.157,0.948 1.897,1.247 0.74,0.303 1.555,0.45 2.465,0.45 0.845,0 1.641,-0.147 2.419,-0.45 C 0.417,2.575 1.081,2.12 1.65,1.503 Z"
             style="fill:#5f5f60;fill-opacity:1;fill-rule:nonzero;stroke:none"
             id="path3856"
             inkscape:connector-curvature="0" /></g><path
           d="m 410.461,36.632 h 2.181 V 25.123 h -2.181 z m -0.513,4.126 c 0,0.436 0.161,0.816 0.475,1.129 0.312,0.317 0.692,0.474 1.128,0.474 0.436,0 0.816,-0.157 1.129,-0.474 0.313,-0.313 0.474,-0.693 0.474,-1.129 0,-0.436 -0.161,-0.811 -0.474,-1.129 -0.313,-0.313 -0.693,-0.474 -1.129,-0.474 -0.436,0 -0.816,0.161 -1.128,0.474 -0.314,0.318 -0.475,0.693 -0.475,1.129"
           style="fill:#5f5f60;fill-opacity:1;fill-rule:nonzero;stroke:none"
           id="path3858"
           inkscape:connector-curvature="0" /><g
           id="g3860"
           transform="translate(422.0596,42.3135)"><path
             d="m 0,0 h 3.111 l -3.613,-3.495 h -2.02 z m -4.732,-11.438 c 0,-0.579 0.094,-1.12 0.265,-1.613 0.181,-0.493 0.437,-0.915 0.759,-1.261 0.322,-0.351 0.721,-0.626 1.186,-0.825 0.474,-0.204 0.996,-0.304 1.584,-0.304 0.578,0 1.099,0.1 1.574,0.304 0.465,0.199 0.863,0.474 1.185,0.825 0.332,0.346 0.578,0.768 0.759,1.261 0.181,0.493 0.266,1.034 0.266,1.613 0,0.583 -0.085,1.124 -0.266,1.617 -0.181,0.493 -0.427,0.915 -0.759,1.261 -0.322,0.351 -0.72,0.626 -1.185,0.825 -0.475,0.204 -0.996,0.304 -1.574,0.304 -0.588,0 -1.11,-0.1 -1.584,-0.304 -0.465,-0.199 -0.864,-0.474 -1.186,-0.825 -0.322,-0.346 -0.578,-0.768 -0.759,-1.261 -0.171,-0.493 -0.265,-1.034 -0.265,-1.617 m -2.333,0 c 0,0.844 0.161,1.626 0.474,2.356 0.322,0.731 0.749,1.366 1.299,1.921 0.55,0.55 1.205,0.982 1.944,1.295 0.749,0.318 1.546,0.474 2.41,0.474 0.853,0 1.65,-0.156 2.399,-0.474 0.739,-0.313 1.394,-0.745 1.944,-1.295 0.55,-0.555 0.977,-1.19 1.299,-1.921 0.314,-0.73 0.475,-1.512 0.475,-2.356 0,-0.84 -0.161,-1.627 -0.475,-2.367 -0.322,-0.735 -0.749,-1.375 -1.299,-1.916 -0.55,-0.545 -1.205,-0.972 -1.944,-1.289 -0.749,-0.313 -1.546,-0.47 -2.399,-0.47 -0.864,0 -1.661,0.157 -2.41,0.47 -0.739,0.317 -1.394,0.744 -1.944,1.289 -0.55,0.541 -0.977,1.181 -1.299,1.916 -0.313,0.74 -0.474,1.527 -0.474,2.367"
             style="fill:#5f5f60;fill-opacity:1;fill-rule:nonzero;stroke:none"
             id="path3862"
             inkscape:connector-curvature="0" /></g><g
           id="g3864"
           transform="translate(429.4199,36.6323)"><path
             d="m 0,0 h 2.19 v -1.774 h 0.048 c 0.276,0.617 0.749,1.115 1.432,1.494 0.684,0.38 1.461,0.569 2.352,0.569 0.55,0 1.082,-0.085 1.594,-0.251 0.512,-0.171 0.958,-0.436 1.337,-0.792 0.379,-0.356 0.683,-0.811 0.91,-1.371 0.228,-0.559 0.342,-1.218 0.342,-1.977 v -7.407 H 8.014 v 6.8 c 0,0.531 -0.076,0.991 -0.218,1.37 -0.143,0.38 -0.342,0.688 -0.578,0.921 C 6.971,-2.182 6.695,-2.011 6.373,-1.907 6.061,-1.802 5.729,-1.75 5.396,-1.75 4.941,-1.75 4.515,-1.821 4.135,-1.968 3.746,-2.115 3.404,-2.343 3.11,-2.661 2.816,-2.974 2.589,-3.376 2.428,-3.86 2.267,-4.349 2.19,-4.922 2.19,-5.586 v -5.923 H 0 Z"
             style="fill:#5f5f60;fill-opacity:1;fill-rule:nonzero;stroke:none"
             id="path3866"
             inkscape:connector-curvature="0" /></g><g
           id="g3868"
           transform="translate(454.1172,26.8726)"><path
             d="M 0,0 C 0.578,0 1.1,0.1 1.574,0.304 2.039,0.503 2.438,0.778 2.76,1.129 3.092,1.475 3.338,1.897 3.519,2.39 3.699,2.883 3.784,3.424 3.784,4.002 3.784,4.586 3.699,5.126 3.519,5.62 3.338,6.113 3.092,6.535 2.76,6.881 2.438,7.232 2.039,7.507 1.574,7.706 1.1,7.91 0.578,8.01 0,8.01 -0.588,8.01 -1.109,7.91 -1.584,7.706 -2.049,7.507 -2.447,7.232 -2.77,6.881 -3.092,6.535 -3.348,6.113 -3.528,5.62 -3.699,5.126 -3.794,4.586 -3.794,4.002 -3.794,3.424 -3.699,2.883 -3.528,2.39 -3.348,1.897 -3.092,1.475 -2.77,1.129 -2.447,0.778 -2.049,0.503 -1.584,0.304 -1.109,0.1 -0.588,0 0,0 M 5.966,-1.75 H 3.784 V -0.1 H 3.736 C 3.31,-0.716 2.731,-1.19 2.001,-1.532 1.262,-1.873 0.503,-2.039 -0.275,-2.039 c -0.882,0 -1.688,0.152 -2.41,0.46 -0.72,0.308 -1.336,0.735 -1.848,1.285 -0.513,0.55 -0.902,1.19 -1.177,1.921 -0.274,0.725 -0.417,1.517 -0.417,2.375 0,0.859 0.143,1.656 0.417,2.395 0.275,0.735 0.664,1.375 1.177,1.916 0.512,0.545 1.128,0.968 1.848,1.276 0.722,0.308 1.528,0.46 2.41,0.46 0.825,0 1.603,-0.171 2.333,-0.522 0.73,-0.346 1.29,-0.82 1.678,-1.418 h 0.048 v 8.498 h 2.182 z"
             style="fill:#5f5f60;fill-opacity:1;fill-rule:nonzero;stroke:none"
             id="path3870"
             inkscape:connector-curvature="0" /></g><g
           id="g3872"
           transform="translate(471.3789,31.8237)"><path
             d="M 0,0 C -0.02,0.488 -0.095,0.929 -0.228,1.337 -0.37,1.74 -0.579,2.091 -0.854,2.39 -1.129,2.693 -1.471,2.926 -1.878,3.097 -2.296,3.267 -2.779,3.353 -3.329,3.353 -3.86,3.353 -4.354,3.248 -4.8,3.049 -5.245,2.845 -5.615,2.584 -5.928,2.257 -6.231,1.935 -6.469,1.574 -6.64,1.176 -6.811,0.782 -6.896,0.389 -6.896,0 Z m -6.896,-1.75 c 0,-0.498 0.105,-0.958 0.323,-1.371 0.227,-0.412 0.512,-0.763 0.863,-1.057 0.36,-0.289 0.769,-0.517 1.242,-0.678 0.465,-0.162 0.958,-0.242 1.461,-0.242 0.673,0 1.262,0.157 1.764,0.474 0.503,0.313 0.968,0.73 1.385,1.248 l 1.65,-1.262 c -1.214,-1.57 -2.911,-2.352 -5.093,-2.352 -0.91,0 -1.726,0.152 -2.466,0.46 -0.74,0.308 -1.356,0.73 -1.868,1.276 -0.512,0.54 -0.901,1.18 -1.177,1.915 -0.274,0.735 -0.417,1.532 -0.417,2.39 0,0.859 0.152,1.656 0.456,2.395 0.294,0.735 0.71,1.375 1.233,1.916 0.53,0.545 1.157,0.968 1.878,1.276 0.729,0.308 1.526,0.46 2.38,0.46 1.024,0 1.887,-0.176 2.59,-0.532 C 0.009,4.211 0.588,3.741 1.043,3.167 1.498,2.594 1.82,1.949 2.029,1.228 c 0.2,-0.721 0.304,-1.456 0.304,-2.2 V -1.75 Z"
             style="fill:#5f5f60;fill-opacity:1;fill-rule:nonzero;stroke:none"
             id="path3874"
             inkscape:connector-curvature="0" /></g><g
           id="g3876"
           transform="translate(482.5225,42.3135)"><path
             d="M 0,0 H 11.097 V -2.187 H 2.324 V -7.308 H 10.49 V -9.494 H 2.324 v -5.51 h 9.209 V -17.19 L 0,-17.19 Z"
             style="fill:#5f5f60;fill-opacity:1;fill-rule:nonzero;stroke:none"
             id="path3878"
             inkscape:connector-curvature="0" /></g><path
           d="m 496.408,43.48 h 2.19 V 25.123 h -2.19 z"
           style="fill:#5f5f60;fill-opacity:1;fill-rule:nonzero;stroke:none"
           id="path3880"
           inkscape:connector-curvature="0" /><g
           id="g3882"
           transform="translate(508.7656,28.7173)"><path
             d="m 0,0 c 0.427,-0.63 0.968,-1.1 1.622,-1.399 0.654,-0.299 1.328,-0.446 2.021,-0.446 0.388,0 0.787,0.057 1.194,0.18 0.408,0.124 0.768,0.304 1.1,0.546 0.333,0.242 0.608,0.545 0.816,0.901 C 6.962,0.138 7.066,0.55 7.066,1.02 7.066,1.684 6.857,2.187 6.44,2.537 6.014,2.883 5.492,3.177 4.875,3.41 4.249,3.647 3.566,3.87 2.836,4.088 2.097,4.311 1.413,4.614 0.797,4.999 c -0.626,0.388 -1.148,0.91 -1.565,1.569 -0.426,0.655 -0.635,1.541 -0.635,2.656 0,0.503 0.114,1.038 0.332,1.603 0.217,0.569 0.559,1.086 1.024,1.555 0.474,0.47 1.071,0.863 1.812,1.176 0.739,0.318 1.622,0.474 2.655,0.474 0.939,0 1.84,-0.128 2.703,-0.388 0.854,-0.257 1.603,-0.783 2.258,-1.58 L 7.483,10.343 C 7.189,10.793 6.781,11.159 6.241,11.434 5.71,11.708 5.103,11.846 4.42,11.846 3.775,11.846 3.234,11.761 2.808,11.595 2.381,11.424 2.039,11.206 1.773,10.936 1.518,10.67 1.338,10.381 1.233,10.077 1.129,9.769 1.072,9.484 1.072,9.224 1.072,8.498 1.28,7.938 1.707,7.55 2.125,7.161 2.646,6.848 3.272,6.601 3.889,6.359 4.572,6.141 5.312,5.947 6.042,5.752 6.725,5.482 7.351,5.136 7.977,4.785 8.498,4.315 8.916,3.728 9.333,3.135 9.551,2.324 9.551,1.285 9.551,0.46 9.39,-0.284 9.077,-0.948 8.754,-1.612 8.337,-2.172 7.797,-2.622 7.266,-3.078 6.63,-3.424 5.909,-3.666 5.179,-3.912 4.401,-4.031 3.576,-4.031 c -1.1,0 -2.143,0.195 -3.13,0.584 -0.996,0.388 -1.773,0.986 -2.362,1.797 z"
             style="fill:#5f5f60;fill-opacity:1;fill-rule:nonzero;stroke:none"
             id="path3884"
             inkscape:connector-curvature="0" /></g><g
           id="g3886"
           transform="translate(526.8525,30.6572)"><path
             d="m 0,0 c -0.512,0 -1.043,-0.029 -1.584,-0.085 -0.55,-0.058 -1.043,-0.166 -1.489,-0.328 -0.446,-0.161 -0.806,-0.389 -1.09,-0.678 -0.285,-0.289 -0.428,-0.664 -0.428,-1.119 0,-0.664 0.229,-1.138 0.674,-1.432 0.445,-0.29 1.043,-0.437 1.802,-0.437 0.607,0 1.11,0.1 1.537,0.304 0.417,0.204 0.759,0.465 1.015,0.792 0.265,0.322 0.445,0.683 0.559,1.076 0.113,0.399 0.171,0.792 0.171,1.181 l 0,0.726 z m -6.165,4.566 c 0.617,0.565 1.328,0.992 2.135,1.276 0.815,0.28 1.621,0.422 2.427,0.422 0.844,0 1.565,-0.104 2.172,-0.313 C 1.176,5.738 1.679,5.458 2.067,5.103 2.456,4.742 2.741,4.334 2.931,3.874 3.111,3.414 3.206,2.931 3.206,2.428 v -5.876 c 0,-0.403 0.009,-0.778 0.028,-1.114 0.01,-0.342 0.038,-0.664 0.067,-0.972 H 1.366 C 1.309,-4.951 1.29,-4.368 1.29,-3.785 H 1.242 c -0.483,-0.744 -1.061,-1.27 -1.725,-1.579 -0.664,-0.308 -1.433,-0.46 -2.305,-0.46 -0.541,0 -1.044,0.072 -1.527,0.219 -0.494,0.142 -0.911,0.36 -1.281,0.654 -0.36,0.289 -0.654,0.65 -0.863,1.081 -0.208,0.427 -0.312,0.925 -0.312,1.494 0,0.745 0.161,1.366 0.493,1.868 0.332,0.503 0.787,0.911 1.365,1.224 0.569,0.318 1.243,0.545 2.011,0.683 0.768,0.137 1.593,0.204 2.465,0.204 H 1.167 V 2.091 C 1.167,2.38 1.109,2.674 0.996,2.964 0.882,3.253 0.712,3.519 0.483,3.751 0.256,3.988 -0.019,4.173 -0.36,4.311 -0.702,4.448 -1.109,4.519 -1.574,4.519 -2.001,4.519 -2.361,4.477 -2.684,4.396 -2.997,4.315 -3.281,4.216 -3.547,4.092 -3.803,3.969 -4.04,3.832 -4.249,3.666 -4.458,3.504 -4.657,3.353 -4.855,3.206 Z"
             style="fill:#5f5f60;fill-opacity:1;fill-rule:nonzero;stroke:none"
             id="path3888"
             inkscape:connector-curvature="0" /></g><path
           d="m 532.856,43.48 h 2.182 V 25.123 h -2.182 z"
           style="fill:#5f5f60;fill-opacity:1;fill-rule:nonzero;stroke:none"
           id="path3890"
           inkscape:connector-curvature="0" /><g
           id="g3892"
           transform="translate(536.5645,36.6323)"><path
             d="M 0,0 H 2.532 L 5.976,-8.816 9.275,0 h 2.334 L 7.095,-11.509 H 4.686 Z"
             style="fill:#5f5f60;fill-opacity:1;fill-rule:nonzero;stroke:none"
             id="path3894"
             inkscape:connector-curvature="0" /></g><g
           id="g3896"
           transform="translate(555.752,30.6572)"><path
             d="M 0,0 C -0.522,0 -1.053,-0.029 -1.594,-0.085 -2.135,-0.143 -2.628,-0.251 -3.073,-0.413 -3.52,-0.574 -3.889,-0.802 -4.164,-1.091 -4.448,-1.38 -4.591,-1.755 -4.591,-2.21 c 0,-0.664 0.218,-1.138 0.664,-1.432 0.446,-0.29 1.053,-0.437 1.812,-0.437 0.597,0 1.109,0.1 1.526,0.304 0.427,0.204 0.759,0.465 1.025,0.792 0.255,0.322 0.446,0.683 0.559,1.076 0.114,0.399 0.171,0.792 0.171,1.181 l 0,0.726 z m -6.175,4.566 c 0.616,0.565 1.328,0.992 2.144,1.276 0.805,0.28 1.612,0.422 2.427,0.422 0.835,0 1.566,-0.104 2.172,-0.313 C 1.176,5.738 1.669,5.458 2.058,5.103 2.446,4.742 2.74,4.334 2.921,3.874 3.11,3.414 3.205,2.931 3.205,2.428 v -5.876 c 0,-0.403 0,-0.778 0.02,-1.114 C 3.243,-4.904 3.262,-5.226 3.3,-5.534 H 1.355 C 1.309,-4.951 1.28,-4.368 1.28,-3.785 H 1.232 c -0.483,-0.744 -1.062,-1.27 -1.726,-1.579 -0.663,-0.308 -1.432,-0.46 -2.305,-0.46 -0.53,0 -1.043,0.072 -1.526,0.219 -0.484,0.142 -0.911,0.36 -1.272,0.654 -0.369,0.289 -0.654,0.65 -0.862,1.081 -0.209,0.427 -0.323,0.925 -0.323,1.494 0,0.745 0.171,1.366 0.503,1.868 0.332,0.503 0.787,0.911 1.356,1.224 0.578,0.318 1.252,0.545 2.021,0.683 0.767,0.137 1.584,0.204 2.465,0.204 H 1.166 V 2.091 C 1.166,2.38 1.109,2.674 0.995,2.964 0.882,3.253 0.711,3.519 0.483,3.751 0.256,3.988 -0.029,4.173 -0.37,4.311 -0.712,4.448 -1.11,4.519 -1.584,4.519 -2.002,4.519 -2.371,4.477 -2.685,4.396 -2.998,4.315 -3.292,4.216 -3.548,4.092 -3.804,3.969 -4.041,3.832 -4.249,3.666 -4.468,3.504 -4.667,3.353 -4.856,3.206 Z"
             style="fill:#5f5f60;fill-opacity:1;fill-rule:nonzero;stroke:none"
             id="path3898"
             inkscape:connector-curvature="0" /></g><g
           id="g3900"
           transform="translate(567.1426,26.8726)"><path
             d="M 0,0 C 0.578,0 1.1,0.1 1.574,0.304 2.039,0.503 2.438,0.778 2.76,1.129 3.092,1.475 3.338,1.897 3.519,2.39 3.698,2.883 3.784,3.424 3.784,4.002 3.784,4.586 3.698,5.126 3.519,5.62 3.338,6.113 3.092,6.535 2.76,6.881 2.438,7.232 2.039,7.507 1.574,7.706 1.1,7.91 0.578,8.01 0,8.01 -0.588,8.01 -1.11,7.91 -1.584,7.706 -2.049,7.507 -2.447,7.232 -2.77,6.881 -3.092,6.535 -3.349,6.113 -3.528,5.62 -3.699,5.126 -3.794,4.586 -3.794,4.002 -3.794,3.424 -3.699,2.883 -3.528,2.39 -3.349,1.897 -3.092,1.475 -2.77,1.129 -2.447,0.778 -2.049,0.503 -1.584,0.304 -1.11,0.1 -0.588,0 0,0 M 5.965,-1.75 H 3.784 V -0.1 H 3.736 C 3.31,-0.716 2.731,-1.19 2.001,-1.532 1.261,-1.873 0.502,-2.039 -0.275,-2.039 c -0.882,0 -1.689,0.152 -2.41,0.46 -0.72,0.308 -1.336,0.735 -1.849,1.285 -0.512,0.55 -0.901,1.19 -1.176,1.921 -0.275,0.725 -0.417,1.517 -0.417,2.375 0,0.859 0.142,1.656 0.417,2.395 0.275,0.735 0.664,1.375 1.176,1.916 0.513,0.545 1.129,0.968 1.849,1.276 0.721,0.308 1.528,0.46 2.41,0.46 0.825,0 1.602,-0.171 2.333,-0.522 0.73,-0.346 1.29,-0.82 1.678,-1.418 h 0.048 v 8.498 h 2.181 z"
             style="fill:#5f5f60;fill-opacity:1;fill-rule:nonzero;stroke:none"
             id="path3902"
             inkscape:connector-curvature="0" /></g><g
           id="g3904"
           transform="translate(577.6221,30.875)"><path
             d="m 0,0 c 0,-0.579 0.095,-1.119 0.266,-1.612 0.18,-0.493 0.436,-0.915 0.758,-1.262 0.323,-0.351 0.721,-0.626 1.186,-0.825 0.475,-0.204 0.996,-0.303 1.584,-0.303 0.579,0 1.101,0.099 1.574,0.303 0.465,0.199 0.863,0.474 1.186,0.825 0.332,0.347 0.579,0.769 0.758,1.262 C 7.493,-1.119 7.578,-0.579 7.578,0 7.578,0.583 7.493,1.124 7.312,1.617 7.133,2.11 6.886,2.532 6.554,2.879 6.231,3.229 5.833,3.504 5.368,3.704 4.895,3.908 4.373,4.007 3.794,4.007 3.206,4.007 2.685,3.908 2.21,3.704 1.745,3.504 1.347,3.229 1.024,2.879 0.702,2.532 0.446,2.11 0.266,1.617 0.095,1.124 0,0.583 0,0 m -2.333,0 c 0,0.844 0.161,1.627 0.475,2.357 0.322,0.73 0.749,1.366 1.298,1.92 0.551,0.551 1.206,0.982 1.945,1.295 0.75,0.318 1.546,0.474 2.409,0.474 0.853,0 1.65,-0.156 2.399,-0.474 C 6.934,5.259 7.588,4.828 8.138,4.277 8.688,3.723 9.115,3.087 9.438,2.357 9.75,1.627 9.911,0.844 9.911,0 9.911,-0.839 9.75,-1.626 9.438,-2.366 9.115,-3.101 8.688,-3.741 8.138,-4.282 7.588,-4.827 6.934,-5.254 6.193,-5.572 5.444,-5.885 4.647,-6.042 3.794,-6.042 c -0.863,0 -1.659,0.157 -2.409,0.47 -0.739,0.318 -1.394,0.745 -1.945,1.29 -0.549,0.541 -0.976,1.181 -1.298,1.916 -0.314,0.74 -0.475,1.527 -0.475,2.366"
             style="fill:#5f5f60;fill-opacity:1;fill-rule:nonzero;stroke:none"
             id="path3906"
             inkscape:connector-curvature="0" /></g><g
           id="g3908"
           transform="translate(589.7148,36.6323)"><path
             d="m 0,0 h 2.191 v -1.774 h 0.047 c 0.143,0.309 0.342,0.588 0.579,0.839 0.246,0.252 0.512,0.465 0.816,0.641 0.304,0.18 0.626,0.322 0.986,0.427 0.351,0.104 0.711,0.156 1.063,0.156 0.36,0 0.682,-0.047 0.976,-0.142 L 6.563,-2.21 C 6.383,-2.163 6.203,-2.12 6.022,-2.087 5.843,-2.058 5.672,-2.04 5.491,-2.04 4.42,-2.04 3.604,-2.338 3.035,-2.94 2.476,-3.538 2.191,-4.467 2.191,-5.729 v -5.78 H 0 Z"
             style="fill:#5f5f60;fill-opacity:1;fill-rule:nonzero;stroke:none"
             id="path3910"
             inkscape:connector-curvature="0" /></g><g
           id="g3912"
           transform="translate(139.6162,103.6772)"><path
             d="M 0,0 -20.382,48.569 -41.305,0 Z m 2.475,-6.554 h -46.521 l -8.156,-18.964 c -2.011,-4.671 -3.007,-8.156 -3.007,-10.456 0,-1.836 0.863,-3.453 2.608,-4.833 1.746,-1.389 5.511,-2.29 11.296,-2.703 v -3.281 h -37.833 v 3.281 c 5.008,0.883 8.261,2.039 9.741,3.457 3.015,2.831 6.344,8.593 10.015,17.281 l 42.272,98.903 h 3.101 l 41.836,-99.975 c 3.366,-8.029 6.421,-13.24 9.161,-15.639 2.761,-2.391 6.574,-3.733 11.487,-4.027 v -3.281 H 1.053 v 3.281 c 4.789,0.238 8.023,1.03 9.712,2.39 1.678,1.361 2.522,3.016 2.522,4.966 0,2.598 -1.185,6.7 -3.547,12.31 z"
             style="fill:#1e4276;fill-opacity:1;fill-rule:nonzero;stroke:none"
             id="path3914"
             inkscape:connector-curvature="0" /></g><g
           id="g3916"
           transform="translate(139.6162,103.6772)"><path
             d="M 0,0 -20.382,48.569 -41.305,0 Z m 2.475,-6.554 h -46.521 l -8.156,-18.964 c -2.011,-4.671 -3.007,-8.156 -3.007,-10.456 0,-1.836 0.863,-3.453 2.608,-4.833 1.746,-1.389 5.511,-2.29 11.296,-2.703 v -3.281 h -37.833 v 3.281 c 5.008,0.883 8.261,2.039 9.741,3.457 3.015,2.831 6.344,8.593 10.015,17.281 l 42.272,98.903 h 3.101 l 41.836,-99.975 c 3.366,-8.029 6.421,-13.24 9.161,-15.639 2.761,-2.391 6.574,-3.733 11.487,-4.027 v -3.281 H 1.053 v 3.281 c 4.789,0.238 8.023,1.03 9.712,2.39 1.678,1.361 2.522,3.016 2.522,4.966 0,2.598 -1.185,6.7 -3.547,12.31 z"
             style="fill:none;stroke:#1e4276;stroke-width:2.10599995;stroke-linecap:butt;stroke-linejoin:miter;stroke-miterlimit:10;stroke-dasharray:none;stroke-opacity:1"
             id="path3918"
             inkscape:connector-curvature="0" /></g><g
           id="g3920"
           transform="translate(304.4541,90.1191)"><path
             d="M 0,0 3.054,-0.616 -7.683,-33.233 h -97.138 v 3.281 h 4.714 c 5.311,0 9.104,1.656 11.38,4.956 1.3,1.892 1.945,6.269 1.945,13.126 v 77.544 c 0,7.503 -0.864,12.193 -2.589,14.085 -2.4,2.603 -5.976,3.898 -10.736,3.898 h -4.714 v 3.281 h 56.801 v -3.281 c -6.658,0.057 -11.334,-0.531 -14.007,-1.774 -2.685,-1.233 -4.515,-2.802 -5.511,-4.69 -0.986,-1.892 -1.47,-6.416 -1.47,-13.558 V -11.87 c 0,-4.908 0.484,-8.275 1.47,-10.11 0.739,-1.242 1.878,-2.153 3.424,-2.741 1.546,-0.597 6.344,-0.891 14.435,-0.891 h 9.153 c 9.626,0 16.379,0.677 20.267,2.039 3.889,1.361 7.436,3.77 10.632,7.227 C -6.421,-12.889 -3.206,-7.44 0,0"
             style="fill:#1e4276;fill-opacity:1;fill-rule:nonzero;stroke:none"
             id="path3922"
             inkscape:connector-curvature="0" /></g><g
           id="g3924"
           transform="translate(304.4541,90.1191)"><path
             d="M 0,0 3.054,-0.616 -7.683,-33.233 h -97.138 v 3.281 h 4.714 c 5.311,0 9.104,1.656 11.38,4.956 1.3,1.892 1.945,6.269 1.945,13.126 v 77.544 c 0,7.503 -0.864,12.193 -2.589,14.085 -2.4,2.603 -5.976,3.898 -10.736,3.898 h -4.714 v 3.281 h 56.801 v -3.281 c -6.658,0.057 -11.334,-0.531 -14.007,-1.774 -2.685,-1.233 -4.515,-2.802 -5.511,-4.69 -0.986,-1.892 -1.47,-6.416 -1.47,-13.558 V -11.87 c 0,-4.908 0.484,-8.275 1.47,-10.11 0.739,-1.242 1.878,-2.153 3.424,-2.741 1.546,-0.597 6.344,-0.891 14.435,-0.891 h 9.153 c 9.626,0 16.379,0.677 20.267,2.039 3.889,1.361 7.436,3.77 10.632,7.227 C -6.421,-12.889 -3.206,-7.44 0,0 Z"
             style="fill:none;stroke:#1e4276;stroke-width:2.15199995;stroke-linecap:butt;stroke-linejoin:miter;stroke-miterlimit:10;stroke-dasharray:none;stroke-opacity:1"
             id="path3926"
             inkscape:connector-curvature="0" /></g><g
           id="g3928"
           transform="translate(386.958,103.6772)"><path
             d="M 0,0 -20.382,48.569 -41.295,0 Z m 2.485,-6.554 h -46.53 l -8.157,-18.964 c -2.01,-4.671 -3.006,-8.156 -3.006,-10.456 0,-1.836 0.872,-3.453 2.617,-4.833 1.745,-1.389 5.501,-2.29 11.296,-2.703 v -3.281 h -37.842 v 3.281 c 5.017,0.883 8.27,2.039 9.749,3.457 3.017,2.831 6.346,8.593 10.006,17.281 l 42.273,98.903 h 3.11 l 41.826,-99.975 c 3.377,-8.029 6.431,-13.24 9.172,-15.639 2.75,-2.391 6.572,-3.733 11.476,-4.027 v -3.281 H 1.062 v 3.281 c 4.791,0.238 8.024,1.03 9.703,2.39 1.688,1.361 2.533,3.016 2.533,4.966 0,2.598 -1.186,6.7 -3.548,12.31 z"
             style="fill:#1e4276;fill-opacity:1;fill-rule:nonzero;stroke:none"
             id="path3930"
             inkscape:connector-curvature="0" /></g><g
           id="g3932"
           transform="translate(386.958,103.6772)"><path
             d="M 0,0 -20.382,48.569 -41.295,0 Z m 2.485,-6.554 h -46.53 l -8.157,-18.964 c -2.01,-4.671 -3.006,-8.156 -3.006,-10.456 0,-1.836 0.872,-3.453 2.617,-4.833 1.745,-1.389 5.501,-2.29 11.296,-2.703 v -3.281 h -37.842 v 3.281 c 5.017,0.883 8.27,2.039 9.749,3.457 3.017,2.831 6.346,8.593 10.006,17.281 l 42.273,98.903 h 3.11 l 41.826,-99.975 c 3.377,-8.029 6.431,-13.24 9.172,-15.639 2.75,-2.391 6.572,-3.733 11.476,-4.027 v -3.281 H 1.062 v 3.281 c 4.791,0.238 8.024,1.03 9.703,2.39 1.688,1.361 2.533,3.016 2.533,4.966 0,2.598 -1.186,6.7 -3.548,12.31 z"
             style="fill:none;stroke:#1e4276;stroke-width:2.10599995;stroke-linecap:butt;stroke-linejoin:miter;stroke-miterlimit:10;stroke-dasharray:none;stroke-opacity:1"
             id="path3934"
             inkscape:connector-curvature="0" /></g><g
           id="g3936"
           transform="translate(544.9961,179.8081)"><path
             d="M 0,0 2.751,-40.863 H 0 c -3.661,12.235 -8.887,21.041 -15.678,26.418 -6.8,5.378 -14.947,8.062 -24.469,8.062 -7.967,0 -15.175,-2.03 -21.615,-6.075 -6.44,-4.045 -11.505,-10.499 -15.204,-19.362 -3.689,-8.858 -5.529,-19.874 -5.529,-33.058 0,-10.864 1.736,-20.296 5.217,-28.268 3.49,-7.972 8.735,-14.084 15.734,-18.343 6.999,-4.254 14.995,-6.378 23.977,-6.378 7.796,0 14.681,1.664 20.647,5.003 5.966,3.343 12.529,9.973 19.671,19.893 l 2.75,-1.768 c -6.022,-10.699 -13.06,-18.523 -21.093,-23.479 -8.043,-4.965 -17.575,-7.445 -28.624,-7.445 -19.917,0 -35.329,7.374 -46.264,22.155 -8.148,10.979 -12.226,23.92 -12.226,38.815 0,11.988 2.685,23.009 8.061,33.048 5.378,10.049 12.776,17.836 22.194,23.36 9.437,5.525 19.727,8.285 30.9,8.285 8.678,0 17.242,-2.134 25.694,-6.383 2.484,-1.304 4.257,-1.954 5.32,-1.954 1.584,0 2.978,0.56 4.164,1.689 1.536,1.593 2.627,3.808 3.281,6.648 z"
             style="fill:#1e4276;fill-opacity:1;fill-rule:nonzero;stroke:none"
             id="path3938"
             inkscape:connector-curvature="0" /></g><g
           id="g3940"
           transform="translate(544.9961,179.8081)"><path
             d="M 0,0 2.751,-40.863 H 0 c -3.661,12.235 -8.887,21.041 -15.678,26.418 -6.8,5.378 -14.947,8.062 -24.469,8.062 -7.967,0 -15.175,-2.03 -21.615,-6.075 -6.44,-4.045 -11.505,-10.499 -15.204,-19.362 -3.689,-8.858 -5.529,-19.874 -5.529,-33.058 0,-10.864 1.736,-20.296 5.217,-28.268 3.49,-7.972 8.735,-14.084 15.734,-18.343 6.999,-4.254 14.995,-6.378 23.977,-6.378 7.796,0 14.681,1.664 20.647,5.003 5.966,3.343 12.529,9.973 19.671,19.893 l 2.75,-1.768 c -6.022,-10.699 -13.06,-18.523 -21.093,-23.479 -8.043,-4.965 -17.575,-7.445 -28.624,-7.445 -19.917,0 -35.329,7.374 -46.264,22.155 -8.148,10.979 -12.226,23.92 -12.226,38.815 0,11.988 2.685,23.009 8.061,33.048 5.378,10.049 12.776,17.836 22.194,23.36 9.437,5.525 19.727,8.285 30.9,8.285 8.678,0 17.242,-2.134 25.694,-6.383 2.484,-1.304 4.257,-1.954 5.32,-1.954 1.584,0 2.978,0.56 4.164,1.689 1.536,1.593 2.627,3.808 3.281,6.648 z"
             style="fill:none;stroke:#1e4276;stroke-width:2.10599995;stroke-linecap:butt;stroke-linejoin:miter;stroke-miterlimit:10;stroke-dasharray:none;stroke-opacity:1"
             id="path3942"
             inkscape:connector-curvature="0" /></g></g></g></g></svg>