<?xml version="1.0" encoding="utf-8"?>
<!-- Generator: Adobe Illustrator 17.1.0, SVG Export Plug-In . SVG Version: 6.00 Build 0)  -->
<!DOCTYPE svg PUBLIC "-//W3C//DTD SVG 1.1//EN" "http://www.w3.org/Graphics/SVG/1.1/DTD/svg11.dtd">
<svg version="1.1" id="address-card" xmlns="http://www.w3.org/2000/svg" xmlns:xlink="http://www.w3.org/1999/xlink" x="0px"
	 y="0px" viewBox="0 0 1010 680.4473" enable-background="new 0 0 1010 680.4473" xml:space="preserve">
<g id="address-card-address-card">
	<path fill="#1A1A1A" d="M0,0v680.4473h243.3584l-20.7373-58.0255c-2.3574-6.8321-3.5122-12.8946-3.5122-18.4756
		c0-30.5049,24.7788-55.2822,55.1865-55.2822c30.5039,0,55.2344,24.7773,55.2344,55.2822c0,5.5088-1.1548,11.5469-3.5122,18.3311
		l-20.6411,58.17h399.1977l-20.4962-58.0255c-2.4052-6.9286-3.6074-12.9668-3.6074-18.4756
		c0-30.5049,24.7773-55.2822,55.2344-55.2822c30.4551,0,55.2344,24.7773,55.2344,55.2822c0,5.6045-1.1553,11.6191-3.5137,18.3311
		l-20.6875,58.17H1010V0H0z M969.6328,640.0313H823.9453l1.5391-4.2823c3.9453-11.1621,5.8222-21.5547,5.8222-31.8027
		c0-52.7803-42.8691-95.6983-95.6015-95.6983c-52.7334,0-95.6026,42.918-95.6026,95.6983c0,10.1035,1.876,20.4482,5.8213,31.8271
		l1.4922,4.2579H362.5835l1.5879-4.3546c3.8974-11.2822,5.7734-21.627,5.7734-31.7305c0-52.7803-42.917-95.6983-95.6494-95.6983
		c-52.6846,0-95.6016,42.918-95.6016,95.6983c0,10.1758,1.876,20.5439,5.8213,31.8994l1.5401,4.1856H40.415V40.3916h929.2178
		V640.0313z"/>
	<path fill="#1A1A1A" d="M406.415,118.0713H104.1177v321.4228H406.415V118.0713z M365.9995,399.127H144.5332V158.4619h221.4663
		V399.127z"/>
	<rect x="481.5205" y="253.1016" fill="#1A1A1A" width="395.542" height="46.8623"/>
	<rect x="481.5205" y="358.5186" fill="#1A1A1A" width="395.542" height="46.8867"/>
	<rect x="481.5205" y="147.6123" fill="#1A1A1A" width="395.542" height="46.8867"/>
</g>
</svg>
