<?xml version="1.0" encoding="utf-8"?>
<!-- Generator: Adobe Illustrator 17.1.0, SVG Export Plug-In . SVG Version: 6.00 Build 0)  -->
<!DOCTYPE svg PUBLIC "-//W3C//DTD SVG 1.1//EN" "http://www.w3.org/Graphics/SVG/1.1/DTD/svg11.dtd">
<svg version="1.1" id="avatar" xmlns="http://www.w3.org/2000/svg" xmlns:xlink="http://www.w3.org/1999/xlink" x="0px" y="0px"
	 viewBox="0 0 1005.256 1010" enable-background="new 0 0 1005.256 1010" xml:space="preserve">
<g id="avatar-avatar">
	<rect x="576.3586" y="865.3936" fill="#1A1A1A" width="197.8799" height="39.5713"/>
	<path fill="#1A1A1A" d="M982.7023,763.5713c-26.0586-40.6103-92.2773-66.2666-168.9629-96.0332
		c-20.459-7.9385-41.627-16.1123-62.7236-24.8535c-62.0615-25.9395-93.2705-40.7764-107.0674-47.7217l-0.6611-72.268
		c11.9541-13.0171,34.0429-44.0362,44.5556-104.3497c4.3243-1.4174,8.8829-3.5913,13.5606-6.9458
		c21.0976-14.8598,35.3428-45.5244,36.5713-65.3457c0.0244-0.5908,3.3779-60.9043-23.0576-83.7729
		c-1.7246-1.4883-3.5196-2.8115-5.4571-3.9688c5.5752-44.9814,7.1817-71.0629,5.5273-87.8837
		C706.9084,86.6553,625.2619,0,502.6501,0S298.3913,86.6553,290.3356,170.3575c-1.6777,16.8442-0.0708,42.9257,5.481,87.9545
		c-1.8667,1.1573-3.7329,2.4805-5.4341,3.9688c-26.4829,22.8686-23.1519,83.1821-23.0811,83.7729
		c1.252,19.8682,15.5689,50.5332,36.5948,65.3457c4.7011,3.3545,9.2841,5.5284,13.5366,6.9458
		c10.4892,60.3135,32.5547,91.3326,44.6269,104.3497l-0.7085,72.2202c-13.8442,7.0175-45.0761,21.8535-107.1142,47.7695
		c-21.0967,8.7647-42.2642,16.915-62.7232,24.8535c-76.6386,29.7666-142.8344,55.4463-168.9633,96.0332
		C-5.3504,807.1123-0.0584,976.4776,1.2883,1010l39.5239-1.6298c-3.0947-78.1504-0.4961-199.1319,15.0727-223.3946
		c19.1123-29.7431,82.6621-54.4082,149.8745-80.4892c20.813-8.0557,42.3116-16.3721,63.6685-25.3252
		c96.6245-40.2325,120.8872-54.8096,121.8555-55.4004l9.4262-5.7168l1.0396-103.4756l-0.189-9.6626l-7.2998-6.0479
		c-0.331-0.2128-30.2397-25.7275-39.9966-101.6098l-2.3388-22.9395l-22.1602,6.355c-7.0166-0.9214-22.1123-23.5771-22.9394-37.0195
		c-1.2046-20.0811,3.5439-43.9185,8.4575-50.3443l25.6802,5.3628l-3.6148-27.6645c-4.583-34.7515-9.5679-77.1343-7.6069-96.7661
		c6.355-66.1729,72.7402-134.6368,172.9087-134.6368c100.0971,0,166.5542,68.4639,172.9555,134.6602
		c1.9131,19.6323-3.0712,61.9912-7.6543,96.7427l-2.5752,26.247l24.5704-4.0161c4.914,6.3077,9.7558,30.2632,8.4804,50.4151
		c-0.7793,13.4189-15.875,36.0512-22.2773,37.1377l-22.1367-6.4258l-2.9766,22.8452
		c-9.7568,75.9292-39.666,101.4439-39.6894,101.4678l-7.8438,6.0005L604.59,618.044l9.4268,5.7168
		c0.9687,0.5908,25.2303,15.1679,121.8086,55.4238c21.4043,8.8828,42.831,17.2461,63.5976,25.2549
		c67.3301,26.1279,130.8799,50.793,149.9453,80.4893c15.5919,24.3096,18.1906,145.2911,15.0723,223.4415l39.5,1.6298
		C1005.3351,976.501,1010.6027,807.1123,982.7023,763.5713z"/>
</g>
</svg>
