<?xml version="1.0" encoding="utf-8"?>
<!-- Generator: Adobe Illustrator 17.1.0, SVG Export Plug-In . SVG Version: 6.00 Build 0)  -->
<!DOCTYPE svg PUBLIC "-//W3C//DTD SVG 1.1//EN" "http://www.w3.org/Graphics/SVG/1.1/DTD/svg11.dtd">
<svg version="1.1" id="calendar" xmlns="http://www.w3.org/2000/svg" xmlns:xlink="http://www.w3.org/1999/xlink" x="0px" y="0px"
	 viewBox="0 0 1010 906.9282" enable-background="new 0 0 1010 906.9282" xml:space="preserve">
<g id="calendar-calendar">
	<path fill="#1A1A1A" d="M838.9951,62.1875V0H699.7754v62.1875h-389.501V0H171.0537v62.1875H0v844.7407h1010V62.1875H838.9951z
		 M745.6641,45.9131h47.3925v78.5117h-47.3925V45.9131z M216.9922,45.9131h47.3931v78.5117h-47.3931V45.9131z M964.1113,861.0649
		H45.9385V258.7138h918.1728V861.0649z M964.1113,212.7998H45.9385V108.1015h125.1152v62.1875h139.2207v-62.1875h389.501v62.1875
		h139.2197v-62.1875h125.1162V212.7998z"/>
	<path fill="#1A1A1A" d="M230.5293,436.6474c0-20.2695-0.7393-42.1162-2.2188-65.2949h1.0108l54.3467,156.3823h27.0498
		l56.1963-156.185h1.0107c-0.271,3.2549-0.7393,12.2793-1.1836,27.1728c-0.5176,14.9922-0.7392,27.1241-0.7392,36.3955v92.6167
		h29.4912V340.4306h-43.2998L298.6357,489.416h-0.7646l-51.9795-148.9854h-43.1519v187.3042h27.7896V436.6474z"/>
	<path fill="#1A1A1A" d="M523.4941,530.3481c27.8877,0,49.4639-8.4824,64.752-25.3476c15.2139-16.9165,22.834-40.687,22.834-71.1646
		c0-30.5264-7.5703-54.248-22.7852-71.0644c-15.2138-16.8662-36.7402-25.25-64.5791-25.25
		c-28.2588,0-50.0068,8.2851-65.2949,24.8554c-15.2144,16.5703-22.8584,40.291-22.8584,71.1631
		c0,30.9707,7.5947,54.791,22.7842,71.6069C473.4868,521.9145,495.186,530.3481,523.4941,530.3481z M482.1665,381.6103
		c9.3452-11.8359,23.228-17.8037,41.5493-17.8037c18.1973,0,31.8828,5.9678,41.0801,17.8037
		c9.124,11.836,13.7598,29.294,13.7598,52.2256c0,23.2774-4.6357,40.8838-13.9327,52.6699
		c-9.246,11.7369-22.9804,17.6548-41.1289,17.6548c-18.3212,0-32.081-5.9179-41.4262-17.852
		c-9.3208-11.8848-13.9322-29.3926-13.9322-52.4727C468.1357,410.9043,472.7964,393.4463,482.1665,381.6103z"/>
	<path fill="#1A1A1A" d="M679.0869,430.4336c0-13.2168-0.6162-27.7158-1.7755-43.5957l-0.6416-8.335h1.0117l92.0977,149.2319
		h37.5303V340.4306H779.248v98.1397c0,6.9541,0.2715,16.5703,0.7891,28.9492c0.4942,12.2793,0.8633,19.4795,1.0117,21.4033h-0.789
		L688.457,340.4306h-37.1601v187.3042h27.79V430.4336z"/>
	<path fill="#1A1A1A" d="M390.1421,665.1802c16.2744-13.2168,25.8418-21.0586,28.7515-23.5743
		c2.8603-2.4648,5.2768-4.6855,7.2002-6.8047c-0.6905,8.4825-1.0108,19.9239-1.0108,34.373v120.9238h30.083V602.7934h-25.0776
		l-55.1109,43.3008L390.1421,665.1802z"/>
	<path fill="#1A1A1A" d="M628.3652,629.5727v-26.7793h-97.326l-7.2246,91.4825l13.4882,7.9902
		c4.4375-1.0859,9.5664-1.9727,15.4844-2.8125c5.918-0.8379,10.875-1.2324,14.8945-1.2324
		c28.5039,0,42.7569,11.2441,42.7569,33.5351c0,11.7383-3.5508,20.6641-10.628,26.6797c-7.0517,6.0664-17.4335,9.125-30.9951,9.125
		c-7.6933,0-16.0283-1.0859-25.0029-3.2558c-8.9512-2.1211-16.8916-5.129-23.8203-9.0254v27.2226
		c11.9346,6.7578,28.4062,10.1113,49.3164,10.1113c23.0557,0,40.8584-5.623,53.3603-16.8183
		c12.5264-11.2442,18.7647-26.8282,18.7647-46.8496c0-17.211-5.4981-30.8223-16.4961-40.7852
		c-11.0469-10.0605-25.9902-15.041-44.8535-15.041c-6.2139,0-11.5156,0.3945-15.7813,0.9863
		c-4.3398,0.7403-8.0136,1.2813-10.997,1.8243l4.2158-46.3575H628.3652z"/>
</g>
</svg>
