<?xml version="1.0" encoding="utf-8"?>
<!-- Generator: Adobe Illustrator 17.1.0, SVG Export Plug-In . SVG Version: 6.00 Build 0)  -->
<!DOCTYPE svg PUBLIC "-//W3C//DTD SVG 1.1//EN" "http://www.w3.org/Graphics/SVG/1.1/DTD/svg11.dtd">
<svg version="1.1" id="chart" xmlns="http://www.w3.org/2000/svg" xmlns:xlink="http://www.w3.org/1999/xlink" x="0px" y="0px"
	 viewBox="0 0 1007.359 1009.9986" enable-background="new 0 0 1007.359 1009.9986" xml:space="preserve">
<g id="chart-chart">
	<g>
		<path fill="#1A1A1A" d="M697.8427,969.4683c-2.582,0-5.2373-0.5205-7.6699-1.5879c-4.9141-2.1094-8.7364-6.1797-10.5479-11.2432
			L533.0184,548.4614c-2.1348-5.9062-1.2168-12.5581,2.4072-17.6709c3.624-5.187,9.5303-8.2646,15.8594-8.2646h436.7177
			c5.3858,0,10.5489,2.2339,14.2217,6.2051c3.6475,3.9956,5.5342,9.3071,5.0635,14.6679
			C992.9168,730.187,877.3348,892.8023,705.6102,967.855C703.1287,968.9478,700.4734,969.4683,697.8427,969.4683L697.8427,969.4683z
			 M578.8094,561.2925L708.9109,923.603c141.8916-69.5683,238.587-205.5019,257.6973-362.3105H578.8094L578.8094,561.2925z"/>
	</g>
	<g>
		<path fill="#1A1A1A" d="M988.0027,485.6944H539.3221c-10.7217,0-19.4092-8.6373-19.4092-19.3589V19.3423
			c0-5.3613,2.2842-10.5234,6.2051-14.1963c3.9707-3.6738,9.2578-5.4111,14.6191-5.1133
			c247.0498,17.8702,447.6621,217.6641,466.5508,464.8135c0.4707,5.3609-1.416,10.7217-5.0635,14.6436
			C998.5262,483.4605,993.3885,485.6944,988.0027,485.6944L988.0027,485.6944z M558.7313,446.9766h407.8769
			C940.6727,235.4175,770.2899,65.605,558.7313,40.6372V446.9766L558.7313,446.9766z"/>
	</g>
	<g>
		<path fill="#1A1A1A" d="M503.6824,1009.9986c-262.289,0-483.477-204.9561-503.6303-466.5997
			c-0.397-5.3608,1.4892-10.6723,5.1128-14.6679c3.6733-3.9712,8.8354-6.2051,14.246-6.2051h455.6797
			c8.1407,0,15.4375,5.1129,18.1675,12.8564l155.02,431.5303c1.7871,5.1123,1.4141,10.7217-1.0918,15.5362
			c-2.5068,4.791-6.9248,8.3144-12.1367,9.7294C590.8719,1004.0171,546.6942,1009.9986,503.6824,1009.9986L503.6824,1009.9986z
			 M40.7557,561.2925c32.3637,264.002,287.0581,460.4199,563.791,398.4971L461.3904,561.2925H40.7557L40.7557,561.2925z"/>
	</g>
	<g>
		<path fill="#1A1A1A" d="M468.0916,414.6621c-6.4033,0-12.5586-3.2265-16.1821-8.7363L245.9105,92.8071
			c-2.9288-4.4179-3.9214-9.8779-2.6802-15.0898c1.2407-5.2129,4.5664-9.6299,9.2324-12.3105
			C318.3826,27.4829,390.5071,5.4927,466.702,0.0327c5.559-0.2978,10.6718,1.4395,14.5932,5.1133
			c3.9219,3.6729,6.106,8.835,6.106,14.1963v375.9111c0,8.5874-5.6094,16.0826-13.75,18.5645
			C471.8148,414.3643,469.928,414.6621,468.0916,414.6621L468.0916,414.6621z M289.8406,89.1333l158.8921,241.4414V40.6372
			C392.8401,47.0904,339.5779,63.3218,289.8406,89.1333L289.8406,89.1333z"/>
	</g>
	<g>
		<path fill="#1A1A1A" d="M427.9344,485.6944H19.4109c-5.4106,0-10.5727-2.2339-14.246-6.2046
			c-3.6236-3.9219-5.5098-9.2827-5.1128-14.6436c10.7714-139.7812,79.9672-269.9336,189.916-357.1474
			c4.269-3.376,9.7788-4.8155,15.0903-3.9219c5.3608,0.8437,10.126,3.9219,13.1045,8.4883l225.9536,343.3979
			c3.9214,5.9565,4.2686,13.6011,0.8936,19.8555C441.6346,481.773,435.0823,485.6944,427.9344,485.6944L427.9344,485.6944z
			 M40.7557,446.9766h351.29l-194.334-295.3482C110.9441,227.1782,54.7532,332.9077,40.7557,446.9766L40.7557,446.9766z"/>
	</g>
</g>
</svg>
