<?xml version="1.0" encoding="utf-8"?>
<!-- Generator: Adobe Illustrator 17.1.0, SVG Export Plug-In . SVG Version: 6.00 Build 0)  -->
<!DOCTYPE svg PUBLIC "-//W3C//DTD SVG 1.1//EN" "http://www.w3.org/Graphics/SVG/1.1/DTD/svg11.dtd">
<svg version="1.1" id="chart-2" xmlns="http://www.w3.org/2000/svg" xmlns:xlink="http://www.w3.org/1999/xlink" x="0px" y="0px"
	 viewBox="0 0 1010 1010" enable-background="new 0 0 1010 1010" xml:space="preserve">
<g id="chart-2-chart-2">
	<path fill="#1A1A1A" d="M463.7515,124.8799H442.584C198.5415,124.8799,0,323.4214,0,567.4405
		c0,118.2168,46.021,229.3476,129.605,312.9316C213.165,963.9561,324.3188,1010,442.5605,1010l0.0708-21.167V1010
		c118.1939,0,229.3238-46.0439,312.8843-129.6279c83.584-83.584,129.6289-194.7383,129.6055-312.9316v-21.168H463.7515V124.8799z
		 M442.6313,967.6651h-0.0947c-106.9248,0-207.4243-41.627-282.9995-117.2256C83.9619,774.8643,42.3354,674.3653,42.3354,567.4405
		c0-213.5909,168.1836-388.6255,379.0811-399.6817v420.8496h420.8257c-5.1035,98.9395-46.0684,191.2403-116.6582,261.8311
		C650.0078,926.0381,549.5088,967.6651,442.6313,967.6651z"/>
	<path fill="#1A1A1A" d="M880.3955,129.6285C796.8115,46.0445,685.6582,0,567.416,0h-21.167v463.7515H1010V442.584
		C1010,324.3662,963.9795,213.2124,880.3955,129.6285z M588.584,421.416l0.0469-378.5371
		C792.4883,53.5572,956.4434,217.5357,967.1211,421.416H588.584z"/>
</g>
</svg>
