<?xml version="1.0" encoding="utf-8"?>
<!-- Generator: Adobe Illustrator 17.1.0, SVG Export Plug-In . SVG Version: 6.00 Build 0)  -->
<!DOCTYPE svg PUBLIC "-//W3C//DTD SVG 1.1//EN" "http://www.w3.org/Graphics/SVG/1.1/DTD/svg11.dtd">
<svg version="1.1" id="checklist-graphs" xmlns="http://www.w3.org/2000/svg" xmlns:xlink="http://www.w3.org/1999/xlink" x="0px"
	 y="0px" viewBox="0 0 724.2636 1010" enable-background="new 0 0 724.2636 1010" xml:space="preserve">
<g id="checklist-graphs-checklist-graphs">
	<path fill="#1A1A1A" d="M557.7529,80.7554L507.957,0H216.2382L166.374,80.7554H0V1010h724.2636V80.7554H557.7529z
		 M199.0234,119.4551l44.0645-71.3032h238.0195l44.1338,71.4175v45.0923H199.0234V119.4551z M676.1806,961.8711H48.0839V128.816
		h102.8555v83.9516h422.3623V128.816h102.8789V961.8711z"/>
	<path fill="#1A1A1A" d="M248.7041,369.5293H114.7978v426.0361h133.9063V369.5293z M217.8818,764.7207h-72.2617V400.4429h72.2617
		V764.7207z"/>
	<path fill="#1A1A1A" d="M429.0742,438.6402H295.1894v356.9252h133.8848V438.6402z M398.2509,764.7207h-72.2382V469.4859h72.2382
		V764.7207z"/>
	<path fill="#1A1A1A" d="M475.5595,795.5654h133.9297V324.3911H475.5595V795.5654z M506.3818,355.191h72.2617v409.5297h-72.2617
		V355.191z"/>
	<rect x="114.7978" y="851.9151" fill="#1A1A1A" width="494.6914" height="43.0595"/>
</g>
</svg>
