<?xml version="1.0" encoding="utf-8"?>
<!-- Generator: Adobe Illustrator 17.1.0, SVG Export Plug-In . SVG Version: 6.00 Build 0)  -->
<!DOCTYPE svg PUBLIC "-//W3C//DTD SVG 1.1//EN" "http://www.w3.org/Graphics/SVG/1.1/DTD/svg11.dtd">
<svg version="1.1" id="checklist" xmlns="http://www.w3.org/2000/svg" xmlns:xlink="http://www.w3.org/1999/xlink" x="0px" y="0px"
	 viewBox="0 0 724.2286 1010" enable-background="new 0 0 724.2286 1010" xml:space="preserve">
<g id="checklist-checklist">
	<path fill="#1A1A1A" d="M557.6954,80.7325L507.877,0H216.2149l-49.8643,80.7325H0V1010h724.2286V80.7325H557.6954z
		 M198.9541,119.4322l44.1104-71.3033h237.9629l44.2012,71.3946v45.1152H198.9541V119.4322z M676.1914,961.8487H48.0606V128.816
		h102.833v83.9516h422.373V128.816h102.9248V961.8487z"/>
	<rect x="265.6456" y="341.2637" fill="#1A1A1A" width="323.5117" height="48.106"/>
	<rect x="134.9571" y="341.2637" fill="#1A1A1A" width="71.8965" height="48.106"/>
	<rect x="265.6456" y="479.189" fill="#1A1A1A" width="323.5117" height="48.0835"/>
	<rect x="134.9571" y="479.189" fill="#1A1A1A" width="71.8965" height="48.0835"/>
	<rect x="265.6456" y="617.0694" fill="#1A1A1A" width="323.5117" height="48.083"/>
	<rect x="134.9571" y="617.0694" fill="#1A1A1A" width="71.8965" height="48.083"/>
	<rect x="265.6456" y="754.9483" fill="#1A1A1A" width="323.5117" height="48.1064"/>
	<rect x="134.9571" y="754.9483" fill="#1A1A1A" width="71.8965" height="48.1064"/>
</g>
</svg>
