<?xml version="1.0" encoding="utf-8"?>
<!-- Generator: Adobe Illustrator 17.1.0, SVG Export Plug-In . SVG Version: 6.00 Build 0)  -->
<!DOCTYPE svg PUBLIC "-//W3C//DTD SVG 1.1//EN" "http://www.w3.org/Graphics/SVG/1.1/DTD/svg11.dtd">
<svg version="1.1" id="clock" xmlns="http://www.w3.org/2000/svg" xmlns:xlink="http://www.w3.org/1999/xlink" x="0px" y="0px"
	 viewBox="0 0 1010 1010" enable-background="new 0 0 1010 1010" xml:space="preserve">
<g id="clock-clock">
	<path fill="#1A1A1A" d="M505,0C226.5352,0,0,226.5596,0,505s226.5352,505,505,505s505-226.5595,505-505S783.4648,0,505,0z
		 M505,967.6621C249.8613,967.6621,42.3379,760.0889,42.3379,505S249.8613,42.3384,505,42.3384
		c255.1133,0,462.6621,207.5728,462.6621,462.6616S760.1133,967.6621,505,967.6621z"/>
	<rect x="180.6211" y="477.5557" fill="#1A1A1A" width="88.4736" height="43.0781"/>
	<rect x="483.4736" y="180.6465" fill="#1A1A1A" width="43.0772" height="88.4487"/>
	<rect x="483.4736" y="740.9541" fill="#1A1A1A" width="43.0772" height="88.4004"/>
	<path fill="#1A1A1A" d="M559.7168,505c0-30.1567-24.584-54.667-54.7168-54.667c-7.6191,0-14.7949,1.5538-21.3291,4.2906
		L372.8076,312.0743l-26.6064,20.7128l112.0962,144.1026c-5.0303,8.2607-7.9893,17.8037-7.9893,28.1103
		c0,30.1817,24.5347,54.7168,54.6919,54.7168c11.5156,0,22.1182-3.6006,30.9463-9.7402l164.4951,91.8027l16.3477-29.417
		l-160.3028-89.4599C558.4102,517.2305,559.7168,511.2881,559.7168,505z M505,534.541c-16.2988,0-29.5156-13.2417-29.5156-29.541
		c0-16.2495,13.2168-29.4912,29.5156-29.4912c16.2744,0,29.4912,13.2417,29.4912,29.4912
		C534.4912,521.2993,521.2744,534.541,505,534.541z"/>
	<rect x="740.8809" y="477.5557" fill="#1A1A1A" width="88.4726" height="43.0781"/>
</g>
</svg>
