<?xml version="1.0" encoding="utf-8"?>
<!-- Generator: Adobe Illustrator 17.1.0, SVG Export Plug-In . SVG Version: 6.00 Build 0)  -->
<!DOCTYPE svg PUBLIC "-//W3C//DTD SVG 1.1//EN" "http://www.w3.org/Graphics/SVG/1.1/DTD/svg11.dtd">
<svg version="1.1" id="diamond" xmlns="http://www.w3.org/2000/svg" xmlns:xlink="http://www.w3.org/1999/xlink" x="0px" y="0px"
	 viewBox="0 0 910.2191 1010.0024" enable-background="new 0 0 910.2191 1010.0024" xml:space="preserve">
<g id="diamond-diamond">
	<path fill="#1A1A1A" d="M909.9604,501.6357c-0.2852-2.6431-0.7617-5.334-2.0235-7.5962c-0.0479-0.0952-0.1669-0.1191-0.2148-0.2143
		c-0.0469-0.0713-0.0234-0.1905-0.0713-0.2618L767.9184,263.3437c-0.1671-0.2627-0.4053-0.4531-0.5714-0.6914
		c-0.0957-0.1426-0.0957-0.3096-0.1904-0.4521c-0.167-0.2383-0.4766-0.3331-0.667-0.5713
		c-1.4766-1.8575-3.2383-3.4532-5.3106-4.5479c-0.166-0.0957-0.2851-0.2383-0.4521-0.334
		c-2.2139-1.0947-4.6904-1.6191-7.2158-1.7383c-0.2618,0-0.4756-0.1669-0.7373-0.1669h-295.086h-300.372
		c-0.3335,0-0.6192,0.2148-0.9527,0.2382c-2.3335,0.167-4.5718,0.6436-6.6196,1.5957c-0.1192,0.0713-0.2857,0.0479-0.4287,0.0957
		c-2.5479,1.3096-4.8101,3.167-6.4771,5.5713c-0.1191,0.1914-0.1191,0.4287-0.2383,0.5957
		c-0.1186,0.1905-0.333,0.2383-0.4282,0.4053L2.391,493.5634c-0.1191,0.1905-0.0712,0.4283-0.1904,0.6426
		c-0.2617,0.4766-0.643,0.8574-0.8574,1.3574c-0.8809,2.024-1.2378,4.1675-1.3335,6.2867c-0.0234,0.4526,0,0.8808,0.0239,1.3334
		c0.0718,2.667,0.667,5.334,1.9527,7.7867c0.0717,0.143,0.0478,0.2856,0.1191,0.4287c0.1431,0.2383,0.4287,0.3335,0.5713,0.5952
		c0.5718,0.8813,1.0478,1.8101,1.7622,2.5957l443.2954,489.5518c0.1431,0.1425,0.3335,0.1904,0.4761,0.3574
		c0.9526,0.9765,1.9526,1.9287,3.1196,2.666c0,0,0,0.0244,0.0239,0.0244c0.524,0.333,1.1431,0.4766,1.6905,0.7627
		c0.0239,0.0234,0.0478,0.0234,0.0717,0.0469c0.4761,0.2148,0.9288,0.4531,1.4288,0.6426c0.4521,0.167,0.8569,0.4531,1.3095,0.5957
		c1.5952,0.4531,3.2622,0.7148,4.9771,0.7148c3.334,0.3086,6.2861-0.834,8.9531-2.5244c0.2617-0.1191,0.5234-0.1904,0.7617-0.3574
		c0.9297-0.5948,1.5489-1.4756,2.3106-2.2139c0.3808-0.3574,0.8808-0.5,1.2148-0.8818l0.5469-0.6182l428.8418-485.4805
		c1.8574-1.5479,3.4277-3.4526,4.666-5.5722c1.7148-2.9287,2.2627-6.3819,2.0488-9.8345
		C910.1518,502.1835,909.9838,501.9213,909.9604,501.6357z M522.2202,896.08l63.8183-145.8291l100.584-229.851h167.4023
		L522.2202,896.08z M398.6806,897.3183L57.3984,520.3999h171.5698l102.1084,226.7563L398.6806,897.3183z M182.4858,290.1796
		h234.1968l-95.417,101.1084l-73.9859,78.4151l-64.8178-179.5235H182.4858z M728.1518,290.1796l-33.5049,99.2749l-26.9316,79.7486
		l-0.0244-0.0239L498.6928,290.1796H728.1518z M757.394,314.1591L861.1205,485.062H699.6713L757.394,314.1591z M460.5932,948.706
		L323.8373,644.9755l-56.0786-124.5756h380.2398L460.6166,948.6826L460.5932,948.706z M281.4272,485.062l176.2607-186.7857
		l74.3907,78.772L634.0444,485.062H281.4272z M153.2202,313.2783L215.228,485.062H48.9208L153.2202,313.2783z"/>
	<path fill="#1A1A1A" d="M706.3393,83.8916h33.0995v33.123c0,9.3584,7.5723,16.9307,16.9063,16.9307
		c9.3828,0,16.955-7.5723,16.955-16.9307v-33.123h33.0996c9.3819,0,16.9551-7.5723,16.9551-16.9307
		c0-9.3584-7.5732-16.9307-16.9551-16.9307h-33.0996V16.9306C773.3002,7.5722,765.728,0,756.3452,0
		c-9.334,0-16.9063,7.5722-16.9063,16.9306v33.0996h-33.0995c-9.3828,0-16.9551,7.5723-16.9551,16.9307
		C689.3842,76.3193,696.9565,83.8916,706.3393,83.8916z"/>
	<path fill="#1A1A1A" d="M599.9916,177.7128h20.6221v20.6221c0,9.3584,7.5723,16.9307,16.9072,16.9307
		c9.3819,0,16.9551-7.5723,16.9551-16.9307v-20.6221h20.5733c9.3349,0,16.9072-7.5722,16.9072-16.9306
		s-7.5723-16.9307-16.9072-16.9307H654.476v-20.5742c0-9.3584-7.5732-16.9307-16.9551-16.9307
		c-9.3349,0-16.9072,7.5723-16.9072,16.9307v20.5742h-20.6221c-9.3818,0-16.9541,7.5723-16.9541,16.9307
		S590.6098,177.7128,599.9916,177.7128z"/>
</g>
</svg>
