<?xml version="1.0" encoding="utf-8"?>
<!-- Generator: Adobe Illustrator 17.1.0, SVG Export Plug-In . SVG Version: 6.00 Build 0)  -->
<!DOCTYPE svg PUBLIC "-//W3C//DTD SVG 1.1//EN" "http://www.w3.org/Graphics/SVG/1.1/DTD/svg11.dtd">
<svg version="1.1" id="email-open" xmlns="http://www.w3.org/2000/svg" xmlns:xlink="http://www.w3.org/1999/xlink" x="0px" y="0px"
	 viewBox="0 0 1010 1010" enable-background="new 0 0 1010 1010" xml:space="preserve">
<g id="email-open-email-open">
	<path fill="#1A1A1A" d="M854.8506,330.8887V0H155.1001v330.8887L0,395.937V1010h1010V395.937L854.8506,330.8887z
		 M854.8506,383.0161l79.0537,33.1656l-79.0537,49.5381V383.0161z M203.2329,48.1328h603.5347V495.877L505,685.0303
		L203.2329,495.877V48.1328z M155.1001,383.0161v82.7037l-79.0049-49.5381L155.1001,383.0161z M48.0835,455.3633l254.0781,159.2676
		L48.0835,924.6582V455.3633z M79.7446,961.917l263.4976-321.5429L505,741.8428l163.4346-102.5293L932.7705,961.917H79.7446z
		 M961.8916,921.5518L709.54,613.5459l252.3516-158.1826V921.5518z"/>
	<rect x="303.2959" y="124.1543" fill="#1A1A1A" width="403.3584" height="48.0835"/>
	<rect x="303.2959" y="248.2837" fill="#1A1A1A" width="403.3584" height="48.0591"/>
	<rect x="303.2959" y="372.3145" fill="#1A1A1A" width="403.3584" height="48.1328"/>
</g>
</svg>
