<?xml version="1.0" encoding="utf-8"?>
<!-- Generator: Adobe Illustrator 17.1.0, SVG Export Plug-In . SVG Version: 6.00 Build 0)  -->
<!DOCTYPE svg PUBLIC "-//W3C//DTD SVG 1.1//EN" "http://www.w3.org/Graphics/SVG/1.1/DTD/svg11.dtd">
<svg version="1.1" id="eye" xmlns="http://www.w3.org/2000/svg" xmlns:xlink="http://www.w3.org/1999/xlink" x="0px" y="0px"
	 viewBox="0 0 1010 502.2598" enable-background="new 0 0 1010 502.2598" xml:space="preserve">
<g id="eye-eye">
	<path fill="#1A1A1A" d="M1002.6641,241.128C995.4414,231.2588,822.1875,0,505,0S14.5576,231.2588,7.3354,241.128L0,251.1485
		l7.3354,10.0205C14.5576,271,187.8125,502.2598,505,502.2598S995.4414,271,1002.6641,261.169L1010,251.1485L1002.6641,241.128z
		 M505,468.379c-262.8892,0-425.311-173.2549-462.2725-217.2305C79.689,207.1729,242.1108,33.8799,505,33.8799
		c262.8887,0,425.3105,173.293,462.2715,217.2686C930.3105,295.1241,767.8887,468.379,505,468.379z"/>
	<path fill="#1A1A1A" d="M505,58.1934c-106.3848,0-192.9175,86.5518-192.9175,192.9551c0,106.3652,86.5327,192.918,192.9175,192.918
		s192.9355-86.5528,192.9355-192.918C697.9355,144.7452,611.3848,58.1934,505,58.1934z M521.9961,409.2413v-19.6807
		c29.9287-2.1182,53.0127-10.418,67.873-25.5801c20.8721-21.251,20.3614-48.0596,20.1163-60.916l-0.0381-2.8359
		c0-15.4649-15.4082-70.7461-87.9512-77.3067v-75.9082c40.3838,4.5567,41.8398,27.8106,41.8398,30.7031l16.9395,0.379
		l16.9209,0.6806c0.0947-2.3447,0.4346-23.3301-17.0908-41.5937c-13.3672-13.9151-33.2559-21.6856-58.6094-23.8975V93.0176
		c79.7266,8.5078,142.0605,76.1543,142.0605,158.1309C664.0566,333.0879,601.7227,400.7334,521.9961,409.2413z M488.1167,92.9991
		v20.3994c-24.1055,2.3447-41.9902,9.0937-53.769,20.9101c-17.1665,17.2051-17.1289,39.5137-17.0909,56.0381
		c0,40.4395,22.1392,60.877,70.8599,64.9424v100.1455c-17.2612-2.25-26.147-7.4306-30.6279-11.9482
		c-6.4092-6.4287-6.3711-14.0293-6.3526-18.793l-33.8794,0.5293c-0.038,6.3525-0.1323,25.75,16.2212,42.1602
		c12.1192,12.1757,30.6089,19.3984,54.6387,21.9121v19.9648c-79.7646-8.4512-142.1548-76.1348-142.1548-158.1113
		C345.9619,169.1338,408.3521,101.4502,488.1167,92.9991z M488.1167,221.4278c-36.9233-3.4785-36.9805-17.6953-36.9805-32.9336
		c-0.0376-13.8779,0.4541-23.4815,7.1846-30.25c5.5396-5.5586,15.8433-9.1504,29.7959-10.8711V221.4278z M521.9961,257.0469
		c50.6309,6.0498,54.0527,42.9356,54.0723,43.1817l0.037,3.4785c0.1895,10.1347,0.4922,25.4482-10.417,36.5273
		c-8.5078,8.6778-23.6328,13.8574-43.6924,15.5781V257.0469z"/>
</g>
</svg>
