<?xml version="1.0" encoding="utf-8"?>
<!-- Generator: Adobe Illustrator 17.1.0, SVG Export Plug-In . SVG Version: 6.00 Build 0)  -->
<!DOCTYPE svg PUBLIC "-//W3C//DTD SVG 1.1//EN" "http://www.w3.org/Graphics/SVG/1.1/DTD/svg11.dtd">
<svg version="1.1" id="globe-hand" xmlns="http://www.w3.org/2000/svg" xmlns:xlink="http://www.w3.org/1999/xlink" x="0px" y="0px"
	 viewBox="0 0 908.0506 1009.9984" enable-background="new 0 0 908.0506 1009.9984" xml:space="preserve">
<g id="globe-hand-globe-hand">
	<path id="globe-hand-globe-hand_1_" fill="#1A1A1A" d="M905.3682,685.3216c-8.9512-21.7236-37.8496-28.7755-61.2266-13.0938
		l-3.9453,2.6143c-19.2832,12.8467-66.6514,44.459-106.2031,70.6964l-7.373,4.8818
		c-23.9922,15.8545-44.0898,29.1709-51.3633,33.8565c-11.8613,7.5195-35.0644,11.1699-53.6318,9.0488
		c-7.8906-0.9121-11.6142-2.2442-12.5752-2.6876c-5.8945-2.4413-18.0019-7.7422-31.4892-13.6855l-24.462-10.8252
		c-17.038-7.5459-31.9814-14.1045-35.5566-15.3868c-1.4551-0.8877-4.8828-5.9423-6.0908-13.414
		c-1.0596-6.4112-0.1475-12.4278,2.3428-15.4854c7.3974-9,36.2226-46.0859,63.6679-82.2109l16.0274-21.1074
		c0.9863-1.2832,1.8007-2.417,2.7871-3.6504c16.3973,5.5976,29.5898,10.9004,41.0057,16.497l0.1241,0.0499
		c-17.0391,33.9541-40.2666,67.0449-68.9942,98.2871l-1.3066,3.33l27.6904,13.1914l1.6279-1.7998
		c19.7022-22.3896,36.6182-44.9765,50.1807-67.1201c6.583-10.4551,12.1563-20.417,17.877-31.2168
		c24.4121,13.0938,48.4785,30.8711,73.3828,54.2969l1.9238,1.8252l24.6826-16.4229h0.0244l61.0294-41.0312
		c12.0331-19.0859,22.2422-38.3193,30.2812-57.0352c53.8281-115.4746,43.6699-273.6333-24.7324-384.5468
		C763.1397,87.5794,634.8662,8.3021,504.3496,1.1761c-173.5332-13.167-337.289,85.2685-409.7602,242.8848
		c-52.1768,105.957-51.1167,254.3017,2.5151,360.7275c3.8223,8.1367,7.9897,16.1504,12.3047,24.0166l2.3672,4.2411l3.1069-3.7226
		c5.0796-6.042,10.7266-11.7872,17.2857-17.6807l1.9477-1.751l-1.2329-2.3183c-27.6909-51.0176-43.2505-107.3125-46.2837-167.4297
		l143.4131-0.1973l10.4307,0.3208c0.9863,41.0068,7.8164,82.9258,20.3183,124.5991l0.7149,2.293l2.3676,0.0976
		c6.189,0.2227,15.066,0.8145,25.3487,1.5547l4.8823,0.3448l-1.4795-4.6846c-12.5264-39.6021-19.998-80.5596-21.5762-118.1143
		l0.2466-6.2138l152.8325-0.2466l39.7495,0.1479l-0.1484,83.2959l31.1074-21.7978l0.2705-61.3994l93.1104-0.5918
		c22.7344-12.0332,43.7676-13.2661,65.9121,0.2465l31.3398-0.0986l2.3428,0.1973c-0.9863,52.4238-13.0693,105.7348-36.8642,162.7446
		c-10.6778-4.832-22.2666-9.4433-34.9903-13.956c20.2442-27.2725,33.1161-45.2725,38.2451-53.6568
		c10.1104-16.373,11.5401-34.3242,3.8467-48.1084c-11.416-20.4414-40.1191-25.4223-67.1445-10.1343
		c-15.1406,8.4825-51.2149,32.8448-110.3955,74.4688l-69.4751,49.4394c-0.6162,0.3692-5.104,3.0332-12.0083,5.6465
		c-5.3755,2.0215-13.9566,4.5625-25.0532,5.1289l-5.8194,0.0987c-16.7182-0.7393-37.2095-2.2686-56.4922-3.7979l-8.6548-0.5918
		c-9.8144-0.7392-18.79-1.3808-26.1625-1.873c-5.5235-0.3457-10.48-0.6416-14.4253-0.7891l-7.1758-0.1484
		c-48.1328,0-90.0523,16.1269-121.1958,46.6777c-6.5591,6.3867-12.5757,13.4883-18.5674,21.7246l-1.8496,2.5156
		c-1.8985,2.4903-3.7974,5.0293-5.3506,7.6192C94.7129,704.556,28.9736,869.1009,1.3316,938.8841L0,1009.9984h233.7119
		l3.2305-14.6963c8.8769-40.1436,16.9893-76.7862,19.6523-88.6953c2.6631-1.8252,7.6446-4.3653,12.6993-6.5352
		c40.1191,9.1973,281.414,64.4081,311.3984,71.041c7.6435,1.7012,15.0898,2.5391,22.2412,2.5391
		c31.6367,0,54.3721-16.5703,72.4463-32.8203c13.6855-12.2549,195.9844-187.7969,218.2021-209.8174
		C906.9717,717.7474,911.4834,700.2405,905.3682,685.3216z M432.7788,32.9857c-58.3911,45.3222-110.272,107.4365-140.6513,168.6132
		c-33.1163-17.0878-63.4458-39.0341-85.959-62.3359C270.1079,78.4066,348.2007,41.8128,432.7788,32.9857z M239.9507,409.3211
		l-153.252,0.4932l0.9126-26.1133c1.0601-1.7012,0.8384-3.8711,1.0108-6.2876c10.8745-84.8745,43.0781-157.5664,95.7485-216.0068
		c30.5518,28.9482,62.3364,51.9795,94.4907,68.4511C255.8799,283.2181,241.4546,349.845,239.9507,409.3211z M463.6016,409.3948
		l-192.7295,0.0494c1.874-59.377,13.5869-113.6499,35.73-165.7281c52.7441,22.044,107.0664,34.1026,157.5424,34.9405
		L463.6016,409.3948z M463.7256,247.4642c-49.7363-1.4307-93.1597-11.0967-143.8325-32.0557
		c31.6118-63.2734,83.9863-123.9092,144.7446-167.5791L463.7256,247.4642z M860.1455,408.8773l-141.1943,0.2465
		c-2.417-63.3227-16.0283-123.8588-41.6475-184.7651c30.3535-16.5947,59.0078-37.7266,85.2442-62.9521
		C823.7246,229.8577,856.5449,313.055,860.1455,408.8773z M741.2666,138.4251c-22.833,22.833-49.6611,42.9541-77.9443,58.4395
		c-29.8858-59.4258-81.2245-119.4444-139.3448-163.1397C607.6192,45.0931,680.6572,80.305,741.2666,138.4251z M495.2754,51.9232
		c55.999,38.4179,109.3105,98.4853,140.626,158.6513c-46.209,22.292-92.419,34.0293-140.9707,35.9522L495.2754,51.9232z
		 M495.2022,409.4935l-0.3457-131.7246c52.3242-2.3916,105.5371-15.7813,154.2871-38.8614
		c23.7461,52.6944,36.79,109.9019,38.787,170.1421L495.2022,409.4935z M718.9014,439.848l137.0516-0.6905
		c1.0606,0.5674,2.1944,0.7891,4.0196,0.9126c-4.2666,88.7945-37.4317,169.2788-98.5352,239.3091
		c-23.2031-21.9463-49.7851-41.6728-83.2705-61.7939C702.8252,560.97,717.5947,496.5623,718.9014,439.848z M867.2959,704.4818
		c-22.1426,21.8964-203.3086,196.3789-216.8701,208.5605c-23.9678,21.502-39.1572,26.4337-61.6709,21.5762
		c-32.6719-7.2256-316.7485-72.2989-316.7485-72.2989l-5.3755-1.208l-5.1538,1.8741
		c-36.4942,13.1679-39.5762,27.2714-40.5381,31.7597c-0.7398,3.3535-8.3101,37.2344-17.2608,77.8711H37.4067v-23.3027
		c53.5582-135.1524,94.7129-234.0811,102.6529-246.8047c1.0356-1.6768,2.1948-3.1563,3.3535-4.71l2.2935-3.083
		c4.7343-6.5586,9.4687-12.1064,14.4741-17.0136c24.3628-23.8692,56.3198-35.9512,95.0332-35.9512l5.7456,0.0732
		c3.4521,0.1729,8.0386,0.3946,13.3154,0.8135c7.4717,0.4443,16.2993,1.1094,25.9898,1.8253l8.7788,0.6416
		c19.3564,1.5038,40.3164,3.0566,57.3056,3.7969l3.107,0.0742l7.3974-0.1729c14.9678-0.8134,27.4698-4.5371,35.3355-7.4462
		c11.1211-4.2422,18.1733-8.6797,19.7514-9.7159l70.0918-49.8095c71.3614-50.2051,97.6465-67.1451,107.1895-72.4961
		c12.1074-6.8057,15.9541-4.167,16.1514-4.167h0.0244c0.2715,0.5425,0.6904,4.167-3.0331,10.3071
		c-3.5255,5.6957-15.8057,23.7461-58.6621,80.4849l-16.0274,21.082c-29.4668,38.7637-56.418,73.3594-62.7558,81.0771
		c-10.8379,13.168-14.1416,32.6475-8.8653,52.251c4.6738,17.2852,15.2031,30.4785,28.2959,35.3359
		c3.7725,1.3321,17.7041,7.545,34.4229,14.9434l23.7217,10.5283c13.7841,6.0655,26.163,11.4913,32.1542,13.9815
		c5.9678,2.4902,13.6358,4.2656,22.7598,5.3262c4.9561,0.5429,10.332,0.8632,15.9053,0.8632
		c14.0547,0,40.7842-2.0214,62.0898-15.5839c7.3721-4.7842,27.6407-18.1738,51.8311-34.1524l7.3974-4.9062
		c39.6016-26.2862,86.9942-57.8985,106.3272-70.795l3.9453-2.6132c3.0088-2.0469,5.0791-2.5157,5.6221-3.4766
		C870.2305,700.7336,869.3916,702.4105,867.2959,704.4818z"/>
</g>
</svg>
