<?xml version="1.0" encoding="utf-8"?>
<!-- Generator: Adobe Illustrator 17.1.0, SVG Export Plug-In . SVG Version: 6.00 Build 0)  -->
<!DOCTYPE svg PUBLIC "-//W3C//DTD SVG 1.1//EN" "http://www.w3.org/Graphics/SVG/1.1/DTD/svg11.dtd">
<svg version="1.1" id="graph-increase" xmlns="http://www.w3.org/2000/svg" xmlns:xlink="http://www.w3.org/1999/xlink" x="0px"
	 y="0px" viewBox="0 0 777.4394 1010" enable-background="new 0 0 777.4394 1010" xml:space="preserve">
<g id="graph-increase-graph-increase">
	<path fill="#1A1A1A" d="M0,1010h229.6318V686.7451H0V1010z M42.3349,729.0791h144.961v238.586H42.3349V729.0791z"/>
	<path fill="#1A1A1A" d="M547.8076,265.3521V1010h229.6318V265.3521H547.8076z M735.1045,967.6651h-144.961V307.6875h144.961
		V967.6651z"/>
	<path fill="#1A1A1A" d="M273.9043,1010h229.6318V483.8326H273.9043V1010z M316.2392,526.168h144.961v441.4971h-144.961V526.168z"/>
	<path fill="#1A1A1A" d="M98.5625,613.6494L639.8974,72.2915v120.5567c0,11.6938,9.4727,21.1675,21.167,21.1675
		c11.6944,0,21.168-9.4737,21.168-21.1675V21.168c0-11.6943-9.4736-21.168-21.168-21.168H489.3838
		c-11.6934,0-21.167,9.4737-21.167,21.168c0,11.6938,9.4736,21.1675,21.167,21.1675h120.5566L68.6533,583.6944L98.5625,613.6494z"/>
</g>
</svg>
