<?xml version="1.0" encoding="utf-8"?>
<!-- Generator: Adobe Illustrator 17.1.0, SVG Export Plug-In . SVG Version: 6.00 Build 0)  -->
<!DOCTYPE svg PUBLIC "-//W3C//DTD SVG 1.1//EN" "http://www.w3.org/Graphics/SVG/1.1/DTD/svg11.dtd">
<svg version="1.1" id="head" xmlns="http://www.w3.org/2000/svg" xmlns:xlink="http://www.w3.org/1999/xlink" x="0px" y="0px"
	 viewBox="0 0 946.0808 1010" enable-background="new 0 0 946.0808 1010" xml:space="preserve">
<path id="head-head" fill="#1A1A1A" d="M944.3589,343.2676l-2.4922-22.7109c-0.7598-5.3189-1.5674-10.8155-2.4932-16.2647
	c-9.3789-55.6206-25.7148-101.1025-49.9814-139.0215c-8.0254-12.5844-16.9766-24.3379-26.5694-34.9155
	c-6.791-7.5034-14.2705-14.7807-22.249-21.6426c-4.7949-4.1196-9.8301-8.1206-14.459-11.5161
	c-18.8056-14.9707-39.582-28.3623-61.7822-39.8545c-10.1631-5.2353-20.5626-10.0556-31.2471-14.5429
	c-7.9072-3.2652-16.0039-6.3399-24.1719-9.2129C660.3803,16.5376,603.8462,5.5918,534.6801,0.0713L525.7524,0
	c-50.706,0-99.3335,6.8145-144.4946,20.23c-25.5249,7.5151-50.0523,17.3096-72.8941,29.1221
	c-7.3842,3.8467-14.6264,7.9424-21.892,12.3589c-5.4849,3.3716-10.8985,6.8144-16.1934,10.4355
	c-12.7505,8.7612-24.8125,18.1997-35.8535,28.0654c-0.7359,0.6529-1.4248,1.3653-2.042,2.125
	c-9.1651,10.8394-19.8501,23.7916-30.0835,37.0528c-13.582,17.6177-25.145,34.2148-35.355,50.729
	c-11.3735,18.3657-21.1797,36.9458-29.1338,55.2046c-9.5928,21.9873-16.4785,43.06-21.0137,64.4414
	c-0.5698,2.6831-0.6171,5.4375-0.166,8.0967c0.2134,1.3178,0.6407,3.9775,1.4956,6.7553c0.9737,3.419,2.4219,6.6958,4.274,10.5069
	l3.229,6.209c7.1709,13.5219,11.1601,22.6518,6.3398,35.1293l-3.894,9.6758c-11.7056,12.7383-23.5303,25.4654-35.4737,38.2041
	l-86.832,92.4117C2.0654,520.6949,0,525.9068,0,531.3203c0,6.5771,2.3506,13.3326,7.1704,19.043
	c6.5771,6.9932,15.8374,10.5899,25.6201,14.4004c15.9082,6.2568,27.4243,11.9072,31.0811,28.3506
	c1.7329,16.8584-5.2476,30.1191-13.0831,42.0029l-2.4458,3.7393c-5.271,8.0625-3.1816,20.0527,3.229,27.2344
	c9.9727,11.1484,9.7828,16.0273,6.4825,21.0742c-1.2349,1.6133-2.5406,2.9433-4.2266,4.2851
	c-8.7378,7.0039-10.5425,19.6006-4.1313,28.7774c2.2793,3.2411,3.9653,6.5654,5.0337,9.9609
	c3.7988,11.7539,0.5937,23.543-5.3663,37.5156l-3.229,7.503c-7.3369,16.5146-15.6474,35.2363-8.6191,55.5019
	c7.2891,19.5537,27.6855,23.293,45.541,26.5576l7.0996,1.3301c16.2407,3.5254,32.3394,5.211,47.8677,6.8379
	c11.6821,1.2344,23.269,2.4688,34.3813,4.3213l9.1177,1.6504c18.4253,3.8585,32.1494,8.8096,44.52,16.0635
	c1.7334,1.0078,3.5854,1.7802,5.5562,2.2675c38.1567,9.6387,42.5972,65.8536,41.8369,98.502
	c-0.1186,5.7217,2.0659,11.2656,6.0552,15.3613c4.0127,4.0957,9.4975,6.3994,15.2197,6.3994H716.227
	c6.2207,0,12.1573-2.7304,16.1934-7.4795c6.4111-7.5029,5.1279-15.4102,4.4639-19.6602c-0.8555-5.2949-3.1104-19.3516-2.92-29.1934
	l0.166-8.6191c0.5215-26.1055,1.211-55.668,2.0655-80.2188c0.4511-12.9648,0.9502-24.5039,1.3525-31.3652
	c2.6602-15.9805,6.6016-30.416,12.419-45.5059c7.5029-19.6837,17.9502-39.8311,31.9599-61.6162
	c15.6944-24.5634,34.2383-48.4853,52.877-72.5498l18.8056-24.4443c9.6641-12.6913,19.0664-25.4893,27.8516-38.5605
	c3.1582-4.7255,6.1973-9.4736,9.1885-14.2343c3.5625-5.7217,7.0527-11.5518,10.3535-17.4756
	c12.3945-22.1768,21.1318-43.1904,26.2363-62.625c2.5879-7.3247,4.3692-12.8096,6.0078-18.3423
	c1.211-4.0483,2.3262-8.0967,3.3946-12.3467C945.5942,429.4702,948.2065,388.417,944.3589,343.2676z M895.352,455.4702
	c-0.9023,3.5733-1.876,7.0757-2.8974,10.542c-1.4473,4.8794-3.0391,9.7471-5.8399,17.8794
	c-4.6777,17.5943-12.1338,35.4024-22.748,54.4214c-2.9668,5.2949-6.0782,10.5298-9.3067,15.6704
	c-2.7549,4.417-5.5566,8.7862-8.4531,13.1192c-8.2871,12.3476-17.2148,24.457-26.3799,36.5185l-19.2568,25.0381
	c-18.5195,23.875-37.6582,48.5684-54.3731,74.7109c-15.5996,24.254-27.33,46.9766-35.8535,69.3672
	c-6.7441,17.5117-11.54,35.0704-14.9121,55.7159c-0.6406,9.2841-1.1865,21.3701-1.6377,34.8916
	c-0.9023,24.7304-1.5908,54.5283-2.1133,80.8613l-0.166,8.6426c-0.0947,4.6533,0.1416,9.5918,0.5928,14.6015H315.748
	c-4.0127-84.4922-44.0215-110.3379-70.7095-118.1377c-15.6474-8.7861-33.1943-15.0302-55.371-19.6601l-9.9727-1.8164
	c-12.228-2.0303-24.6699-3.3838-37.207-4.7139c-14.4126-1.5078-29.3477-3.0742-43.855-6.2207l-7.7881-1.4717
	c-2.5645-0.4629-8.999-1.6377-13.2969-2.8135c0.8311-4.8553,4.1079-12.5605,7.5742-20.3495l3.3721-7.8105
	c8.0015-18.8184,15.0537-41.5293,6.7671-67.2676c-0.6411-2.0059-1.3774-3.9766-2.1846-5.9355
	c9.4976-14.5791,15.9561-36.4004-0.9262-62.127c8.8803-15.4453,16.6211-35.3066,14.0566-60.1553
	c-0.0952-1.1162-0.4038-2.9912-0.9023-5.6513c-7.8116-35.0332-33.669-48.6035-51.2159-55.8575l69.5225-73.9863
	c12.0859-12.8574,24.0054-25.7031,35.9009-38.667c3.2529-3.5976,5.8413-7.6694,7.7168-12.1928l4.2505-10.3999
	c12.394-31.9356-1.0689-57.2466-8.2393-70.7334l-2.8018-5.378c-0.3085-0.6411-0.6411-1.2822-0.9736-2.1963
	c3.918-16.9653,9.6162-33.8828,17.333-51.5722c7.1709-16.4073,16.0274-33.1704,26.3325-49.8267
	c9.4498-15.2676,20.2061-30.6894,32.8853-47.144c9.4502-12.2637,19.3276-24.2544,27.8994-34.4287
	c9.355-8.2984,19.5889-16.2647,30.416-23.6729c4.7012-3.2173,9.5449-6.292,14.3174-9.2363
	c6.3638-3.8584,12.751-7.503,19.3042-10.8867c20.396-10.566,42.3828-19.3394,65.3672-26.1065
	c41.291-12.2637,85.835-18.4849,132.4326-18.4849h6.8858c64.0849,5.1646,117.1289,15.3624,162.1718,31.188
	c7.4551,2.6119,14.8399,5.4253,21.9395,8.3457c9.498,4.001,18.9004,8.3462,28.0654,13.0596
	c19.708,10.21,38.1563,22.1055,55.4424,35.8413c4.416,3.2295,8.5957,6.5654,12.584,9.9844
	c6.625,5.7104,12.8222,11.7417,18.4258,17.9507c8.0254,8.8325,15.5039,18.6865,22.2714,29.2763
	c21.1329,33.0044,35.4737,73.2979,43.879,123.2081c0.8554,5.1049,1.6152,10.2216,2.2324,14.4716l2.3496,21.5005
	C905.4194,387.396,903.1635,423.7954,895.352,455.4702z"/>
</svg>
