<?xml version="1.0" encoding="utf-8"?>
<!-- Generator: Adobe Illustrator 17.1.0, SVG Export Plug-In . SVG Version: 6.00 Build 0)  -->
<!DOCTYPE svg PUBLIC "-//W3C//DTD SVG 1.1//EN" "http://www.w3.org/Graphics/SVG/1.1/DTD/svg11.dtd">
<svg version="1.1" id="ipad-charts" xmlns="http://www.w3.org/2000/svg" xmlns:xlink="http://www.w3.org/1999/xlink" x="0px"
	 y="0px" viewBox="0 0 1010 768.0918" enable-background="new 0 0 1010 768.0918" xml:space="preserve">
<g id="ipad-charts-ipad-charts">
	<path fill="#1A1A1A" d="M0,0v768.0918h1010V0H0z M967.6582,725.75H42.3418V42.3418h925.3164V725.75z"/>
	<path fill="#1A1A1A" d="M880.9551,96.7661H88.6753v574.5601h792.2798V96.7661z M838.6367,628.9844H131.0171V139.1075h707.6196
		V628.9844z"/>
	<path fill="#1A1A1A" d="M391.7368,350.7808H235.3799v244.186h156.3569V350.7808z M351.5317,554.751h-75.9472V390.9971h75.9472
		V554.751z"/>
	<path fill="#1A1A1A" d="M583.2012,265.2285h-156.356v329.7383h156.356V265.2285z M542.9971,554.751h-75.9473V305.4449h75.9473
		V554.751z"/>
	<path fill="#1A1A1A" d="M774.6426,173.1241H618.3105v421.8427h156.3321V173.1241z M734.415,554.751h-75.9004V213.3404h75.9004
		V554.751z"/>
	<rect x="910.9678" y="328.7647" fill="#1A1A1A" width="30.247" height="110.5625"/>
	<rect x="52.1577" y="368.9219" fill="#1A1A1A" width="24.1885" height="30.2476"/>
</g>
</svg>
