<?xml version="1.0" encoding="utf-8"?>
<!-- Generator: Adobe Illustrator 17.1.0, SVG Export Plug-In . SVG Version: 6.00 Build 0)  -->
<!DOCTYPE svg PUBLIC "-//W3C//DTD SVG 1.1//EN" "http://www.w3.org/Graphics/SVG/1.1/DTD/svg11.dtd">
<svg version="1.1" id="letter-chart" xmlns="http://www.w3.org/2000/svg" xmlns:xlink="http://www.w3.org/1999/xlink" x="0px"
	 y="0px" viewBox="0 0 761.7299 1010" enable-background="new 0 0 761.7299 1010" xml:space="preserve">
<g id="letter-chart-letter-chart">
	<path fill="#1A1A1A" d="M530.435,0H0v1010h761.7299V231.294L530.435,0z M544.5405,82.1123l135.1269,135.1021H544.5405V82.1123z
		 M713.646,961.917H48.0834V48.084h448.3731v217.2383H713.646V961.917z"/>
	<path fill="#1A1A1A" d="M577.4331,612.6826H373.9169V409.2032c0-10.6031-8.5561-19.1841-19.1591-19.1841
		c-133.3516,0-241.8477,108.4961-241.8477,241.8227c0,64.6045,25.1758,125.3135,70.8428,171.0293
		c45.6177,45.6924,106.4004,70.8184,171.0542,70.8184c64.5674,0,125.3252-25.126,170.9931-70.8184
		c45.6661-45.7158,70.8184-106.4248,70.7676-171.0293C596.5678,621.2637,587.9877,612.6826,577.4331,612.6826z M354.8071,835.3467
		h-0.0742c-54.3711,0-105.4629-21.1572-143.8804-59.5996c-38.4424-38.417-59.5742-89.5586-59.5742-143.9053
		c0-105.7343,81.0512-192.8759,184.2954-202.5669v202.5669c0,10.5791,8.6055,19.1846,19.1841,19.1846h202.6049
		c-4.3906,47.1211-24.8066,90.8408-58.6875,124.7207C460.2085,814.1895,409.1167,835.3467,354.8071,835.3467z"/>
	<path fill="#1A1A1A" d="M401.5346,343.2178v222.6387c0,10.5781,8.6172,19.1845,19.2207,19.1845h222.6153
		c10.6015,0,19.1836-8.6064,19.1836-19.1845c0-64.6045-25.1016-125.3125-70.8184-171.0044
		c-45.668-45.667-106.375-70.8184-170.9805-70.8184C410.1518,324.0337,401.5346,332.5899,401.5346,343.2178z M439.8901,546.7217
		V363.2896c96.9062,9.0991,174.3828,86.4516,183.457,183.4321H439.8901z"/>
</g>
</svg>
