<?xml version="1.0" encoding="utf-8"?>
<!-- Generator: Adobe Illustrator 17.1.0, SVG Export Plug-In . SVG Version: 6.00 Build 0)  -->
<!DOCTYPE svg PUBLIC "-//W3C//DTD SVG 1.1//EN" "http://www.w3.org/Graphics/SVG/1.1/DTD/svg11.dtd">
<svg version="1.1" id="magnifier-dollar" xmlns="http://www.w3.org/2000/svg" xmlns:xlink="http://www.w3.org/1999/xlink" x="0px"
	 y="0px" viewBox="0 0 1009.9978 1010.0332" enable-background="new 0 0 1009.9978 1010.0332" xml:space="preserve">
<g id="magnifier-dollar-magnifier-dollar">
	<path fill="#1A1A1A" d="M676.6423,0C492.8967,0,343.3479,149.5489,343.3479,333.3311c0,84.2715,31.7051,161.125,83.4683,219.8818
		l-62.2998,62.3233l-31.8472-31.8467c-3.9692-3.9688-9.3555-6.1895-14.9785-6.1895c-5.6231,0-11.0093,2.2207-14.9785,6.1895
		L6.1663,880.2588c-8.2217,8.2686-8.2217,21.6651,0,29.9326l93.6513,93.6524c3.9688,3.9687,9.3555,6.1894,14.9781,6.1894
		c5.623,0,11.0097-2.2207,14.9785-6.1894l296.499-296.5469c8.2686-8.2685,8.2686-21.6641,0-29.9336l-31.8472-31.8701
		l62.3472-62.3232c58.7559,51.7871,135.5977,83.4921,219.8692,83.4921c183.8066,0,333.3555-149.5254,333.3555-333.331
		C1009.9978,149.5489,860.449,0,676.6423,0z M114.7957,958.9317l-63.6939-63.7188l266.5889-266.6113l63.6938,63.7168
		L114.7957,958.9317z M676.6423,624.3252c-76.7579,0-146.4999-30.122-198.5352-78.8857c-0.9922-3.1182-2.481-6.0957-4.9614-8.5762
		c-2.4805-2.4805-5.4575-3.9687-8.5762-4.9609c-48.7627-52.0469-78.8853-121.7891-78.8853-198.5713
		c0-160.4404,130.5538-290.9942,290.9581-290.9942c160.4648,0,291.0175,130.5538,291.0175,290.9942
		C967.6599,493.795,837.1072,624.3252,676.6423,624.3252z"/>
	<path fill="#1A1A1A" d="M817.6873,406.3565c0-23.1524-24.5713-109.5977-144.9668-109.5977
		c-84.9561,0-84.9561-26.3428-84.9561-49.5898v-2.6455c-0.0478-17.0342-0.0478-34.6348,11.3877-46.0938
		c12.0488-12.0957,37.5166-18.4746,73.5684-18.4746c33.4072,0,58.4023,7.3945,72.2949,21.3809
		c12.3789,12.4267,12.6621,26.5781,12.6621,27.6181c-0.3301,11.5528,8.6953,21.2393,20.3184,21.7119
		c10.4424,0.3301,21.499-8.5996,21.9717-20.2949c0.1415-3.2363,0.6142-32.3193-23.8145-57.7402
		c-17.1514-17.8848-41.8408-28.8233-73.333-32.9805v-46.164c0-11.6954-9.4981-21.169-21.168-21.169
		c-11.7187,0-21.1689,9.4736-21.1689,21.169v44.4628c-42.2901,1.6065-72.3408,11.5762-91.2881,30.5713
		c-23.8613,23.8848-23.8145,55.3067-23.7676,76.0967v2.5518c0,63.5761,39.2656,91.9267,127.293,91.9267
		c97.6679,0,102.6289,66.6944,102.6289,67.2608l0.0957,4.9385c0.2353,14.2929,0.708,38.2255-16.0664,55.33
		c-16.0645,16.3731-45.2188,24.6651-86.6582,24.6651c-35.9102,0-61.7559-6.8985-74.75-19.9395
		c-10.3008-10.3242-10.2061-22.7041-10.2061-29.6269c0-11.6709-9.4502-20.6953-21.1211-20.7188c0,0,0,0-0.0478,0
		c-11.6231,0-21.1211,9.8516-21.168,21.499c-0.0469,8.8828-0.1416,35.9102,22.5391,58.709
		c19.6093,19.6797,51.3847,30.0518,93.4619,31.7285v44.3926c0,11.6953,9.4971,21.168,21.168,21.168
		c11.7177,0,21.1689-9.4727,21.1689-21.168v-45.4551c37.6348-4.1113,66.5293-15.9472,85.8066-35.6035
		c29.2481-29.792,28.5391-67.6162,28.1622-85.7842L817.6873,406.3565z"/>
</g>
</svg>
