<?xml version="1.0" encoding="utf-8"?>
<!-- Generator: Adobe Illustrator 17.1.0, SVG Export Plug-In . SVG Version: 6.00 Build 0)  -->
<!DOCTYPE svg PUBLIC "-//W3C//DTD SVG 1.1//EN" "http://www.w3.org/Graphics/SVG/1.1/DTD/svg11.dtd">
<svg version="1.1" id="network" xmlns="http://www.w3.org/2000/svg" xmlns:xlink="http://www.w3.org/1999/xlink" x="0px" y="0px"
	 viewBox="0 0 1010 1010" enable-background="new 0 0 1010 1010" xml:space="preserve">
<path id="network-network" fill="#1A1A1A" d="M799.7637,420.4473C915.707,420.4473,1010,326.1299,1010,210.2364
	C1010,94.293,915.707,0,799.7637,0C683.8711,0,589.5781,94.293,589.5781,210.2364c0,40.538,11.7863,78.3144,31.71,110.4687
	L298.0684,526.3545c-31.6612-28.1103-73.2349-45.4209-118.8526-45.4209C80.4351,480.9336,0,561.3194,0,660.125
	s80.4351,179.2403,179.2158,179.2403c64.6538,0,121.2691-34.5703,152.7822-86.0078l273.1641,109.2851
	C605.6055,943.9659,671.8379,1010,753.2588,1010c81.7178,0,148.1465-66.4785,148.1465-148.1465
	c0-81.7167-66.4287-148.1953-148.1465-148.1953c-64.9502,0-119.6416,42.2637-139.6143,100.5557L351.3794,709.3184
	c4.4878-15.6582,7.0522-32.1055,7.0522-49.1934c0-35.6806-10.603-68.9199-28.7021-96.8818l321.4443-204.5156
	C689.1973,396.8496,741.8174,420.4473,799.7637,420.4473z M753.2588,761.7666c55.1846,0,100.0635,44.9024,100.0635,100.0869
	c0,55.1613-44.8789,100.0635-100.0635,100.0635s-100.0635-44.9023-100.0635-100.0635
	C653.1953,806.669,698.0742,761.7666,753.2588,761.7666z M179.2158,791.2324c-72.2978,0-131.083-58.7852-131.083-131.1074
	c0-72.2734,58.7852-131.0586,131.083-131.0586s131.1323,58.7852,131.1323,131.0586
	C310.3481,732.4473,251.5137,791.2324,179.2158,791.2324z M799.7637,48.084c89.4609,0,162.1523,72.7412,162.1523,162.1524
	c0,89.4101-72.6914,162.1025-162.1523,162.1025c-89.3614,0-162.0528-72.6924-162.0528-162.1025
	C637.7109,120.8252,710.4023,48.084,799.7637,48.084z"/>
</svg>
