<?xml version="1.0" encoding="utf-8"?>
<!-- Generator: Adobe Illustrator 17.1.0, SVG Export Plug-In . SVG Version: 6.00 Build 0)  -->
<!DOCTYPE svg PUBLIC "-//W3C//DTD SVG 1.1//EN" "http://www.w3.org/Graphics/SVG/1.1/DTD/svg11.dtd">
<svg version="1.1" id="news" xmlns="http://www.w3.org/2000/svg" xmlns:xlink="http://www.w3.org/1999/xlink" x="0px" y="0px"
	 viewBox="0 0 1010 1010" enable-background="new 0 0 1010 1010" xml:space="preserve">
<g id="news-news">
	<path fill="#1A1A1A" d="M913.6855,132.834H794.1426V77.3037C794.1426,32.4502,757.0313,0,705.9648,0H82.9502
		C34.0776,0,0,31.7847,0,77.3037v831.0557C0,956.3438,35.4585,1010,82.9502,1010h787.4346v-1.1339
		c5.5234,0.6661,11.0468,1.1339,16.5703,1.1339C957.1328,1010,1010,957.0596,1010,886.9062V201.9512
		C1010,159.958,972.1738,132.834,913.6855,132.834z M82.9502,963.1494c-18.5923,0-36.0996-30.8221-36.0996-54.79V77.3037
		c0-26.5322,22.6362-30.4775,36.0996-30.4775h623.0146c15.3614,0,41.3262,6.4356,41.3262,30.4775v55.5303v737.4776v16.5947
		c0,30.0342,12.1817,55.9503,30.9961,76.2431H82.9502z M963.1738,886.9062c0,44.1875-32.0312,76.2431-76.2187,76.2431
		c-43.9405,0-92.8125-31.291-92.8125-76.2431v-16.5947v-690.627h119.5429c5.0791,0,49.4883,0.5918,49.4883,22.2666V886.9062z"/>
	<rect x="454.8452" y="325.6612" fill="#1A1A1A" width="215.8579" height="46.8261"/>
	<rect x="454.8452" y="441.9248" fill="#1A1A1A" width="215.8579" height="46.7764"/>
	<rect x="454.8452" y="574.709" fill="#1A1A1A" width="215.8579" height="46.8506"/>
	<path fill="#1A1A1A" d="M363.2646,327.6338H111.3809v292.002h251.8837V327.6338z M320.3594,576.6817H154.311v-206.167h166.0484
		V576.6817z"/>
	<rect x="121.0718" y="690.9971" fill="#1A1A1A" width="537.894" height="46.8262"/>
	<rect x="110.3701" y="125.7818" fill="#1A1A1A" width="559.2979" height="107.0415"/>
	<rect x="121.0718" y="823.8311" fill="#1A1A1A" width="537.894" height="46.8506"/>
</g>
</svg>
