<?xml version="1.0" encoding="utf-8"?>
<!-- Generator: Adobe Illustrator 17.1.0, SVG Export Plug-In . SVG Version: 6.00 Build 0)  -->
<!DOCTYPE svg PUBLIC "-//W3C//DTD SVG 1.1//EN" "http://www.w3.org/Graphics/SVG/1.1/DTD/svg11.dtd">
<svg version="1.1" id="paper-award" xmlns="http://www.w3.org/2000/svg" xmlns:xlink="http://www.w3.org/1999/xlink" x="0px"
	 y="0px" viewBox="0 0 761.7422 1010" enable-background="new 0 0 761.7422 1010" xml:space="preserve">
<g id="paper-award-paper-award">
	<path fill="#1A1A1A" d="M530.4971,0H0v1010h761.7422V231.294L530.4971,0z M544.5527,82.0625l135.127,135.1519h-135.127V82.0625z
		 M713.6582,961.8916H48.084V48.084h448.3359v217.2383h217.2383V961.8916z"/>
	<rect x="135.4727" y="199.1646" fill="#1A1A1A" width="206.0439" height="45.6421"/>
	<rect x="135.4727" y="346.3247" fill="#1A1A1A" width="412.0879" height="45.667"/>
	<rect x="135.4727" y="493.4849" fill="#1A1A1A" width="412.0879" height="45.667"/>
	<rect x="135.4727" y="640.7432" fill="#1A1A1A" width="235.6338" height="45.5937"/>
	<rect x="135.4727" y="787.9033" fill="#1A1A1A" width="184.8379" height="45.6181"/>
	<path fill="#1A1A1A" d="M485.8164,669.544l-63.125-0.0244l-0.0986,63.1748l-43.9414,43.916l43.9414,43.9902l-0.0987,63.1992
		l63.1739,0.0245l44.3359,44.4091l44.4336-44.3593l62.3857,0.0244v-62.3604l44.8292-44.7549l-44.7793-44.8037l0.0488-62.3613
		h-62.3848l-44.3359-44.3848L485.8164,669.544z M625.9736,776.7588l-28.5048,28.5039v39.2813l-39.3047-0.0255l-28.1115,28.0615
		l-28.0605-28.1103l-40.0938-0.0245l0.0489-40.0947l-27.666-27.6914l27.6171-27.6172l0.0489-40.1679l40.1435,0.0253l28.1104-28.037
		l28.0605,28.086l39.3057,0.0244l-0.0498,39.3057L625.9736,776.7588z"/>
</g>
</svg>
