<?xml version="1.0" encoding="utf-8"?>
<!-- Generator: Adobe Illustrator 17.1.0, SVG Export Plug-In . SVG Version: 6.00 Build 0)  -->
<!DOCTYPE svg PUBLIC "-//W3C//DTD SVG 1.1//EN" "http://www.w3.org/Graphics/SVG/1.1/DTD/svg11.dtd">
<svg version="1.1" id="pc-graphs" xmlns="http://www.w3.org/2000/svg" xmlns:xlink="http://www.w3.org/1999/xlink" x="0px" y="0px"
	 viewBox="0 0 1010 970.7695" enable-background="new 0 0 1010 970.7695" xml:space="preserve">
<g id="pc-graphs-pc-graphs">
	<path fill="#1A1A1A" d="M938.5898,619.6865V0H77.0322v619.6865H0v351.083h1010v-351.083H938.5898z M125.1157,48.084h765.3901
		v571.6025H125.1157V48.084z M961.8916,922.6367H48.0835V667.7939h913.8081V922.6367z"/>
	<path fill="#1A1A1A" d="M163.9277,577.5947h685.0547V86.1562H163.9277V577.5947z M212.0112,134.2646h588.8872v395.2217H694.6211
		H212.0112V134.2646z"/>
	<rect x="642.248" y="767.3144" fill="#1A1A1A" width="225.4747" height="48.1084"/>
	<rect x="137.7407" y="747.8838" fill="#1A1A1A" width="87.0191" height="86.9199"/>
	<rect x="281.7939" y="747.8838" fill="#1A1A1A" width="87.0186" height="86.9199"/>
	<rect x="252.8452" y="230.4804" fill="#1A1A1A" width="144.9409" height="23.0313"/>
	<rect x="252.8452" y="177.7617" fill="#1A1A1A" width="88.9175" height="23.0547"/>
	<path fill="#1A1A1A" d="M738.2666,401.041c0-17.5811-13.9814-31.7227-31.3652-32.5488l-70.498-129.2207
		c2.2686-4.4512,3.8467-9.2959,3.8467-14.6348c0-18.124-14.7207-32.8447-32.8203-32.8447
		c-18.0986,0-32.8438,14.7207-32.8438,32.8447c0,5.0058,1.3311,9.6289,3.3536,13.8945L453.563,426.9082
		c-3.4273-1.2207-6.978-2.1953-10.8247-2.1953c-6.8306,0-12.7979,2.5898-18.0498,6.165l-90.9644-80.5215
		c1.5288-3.7724,2.4658-7.8535,2.4658-12.1689c0-18.0987-14.7211-32.8203-32.8198-32.8203
		c-18.124,0-32.8447,14.7216-32.8447,32.8203c0,18.124,14.7207,32.8691,32.8447,32.8691c3.9697,0,7.6934-0.9736,11.2442-2.2803
		l96.0434,85.0703c-0.1479,1.2706-0.7397,2.3926-0.7397,3.711c0,18.124,14.7207,32.8447,32.8203,32.8447
		c18.1235,0,32.8447-14.7207,32.8447-32.8447c0-4.3145-0.9375-8.3955-2.4658-12.1807l125.2383-189.7324
		c2.959,0.8633,5.8691,1.8369,9.0742,1.8369c2.7871,0,5.3017-0.9375,7.8906-1.6025l66.7012,122.2676
		c-5.7949,5.9179-9.4199,13.9814-9.4199,22.8945c0,18.124,14.7207,32.8447,32.8203,32.8447S738.2666,419.165,738.2666,401.041z
		 M296.9834,338.1875c0-3.501,2.8604-6.3369,6.3867-6.3369c3.4766,0,6.3369,2.8359,6.3369,6.3369
		c0,3.5263-2.8603,6.3867-6.3369,6.3867C299.8438,344.5742,296.9834,341.7138,296.9834,338.1875z M442.7383,463.9443
		c-3.4771,0-6.3374-2.8603-6.3374-6.3867c0-3.501,2.8603-6.3613,6.3374-6.3613c3.5259,0,6.3862,2.8603,6.3862,6.3613
		C449.1245,461.084,446.2642,463.9443,442.7383,463.9443z M601.0684,224.6367c0-3.5264,2.8603-6.3623,6.3613-6.3623
		c3.5019,0,6.3379,2.8359,6.3379,6.3623C613.7676,231.664,601.0684,231.664,601.0684,224.6367z M699.085,401.041
		c0-3.501,2.8348-6.3613,6.3369-6.3613c3.5019,0,6.3613,2.8603,6.3613,6.3613C711.7832,408.0693,699.085,408.0693,699.085,401.041z"
		/>
</g>
</svg>
