<?xml version="1.0" encoding="utf-8"?>
<!-- Generator: Adobe Illustrator 17.1.0, SVG Export Plug-In . SVG Version: 6.00 Build 0)  -->
<!DOCTYPE svg PUBLIC "-//W3C//DTD SVG 1.1//EN" "http://www.w3.org/Graphics/SVG/1.1/DTD/svg11.dtd">
<svg version="1.1" id="pen-letter" xmlns="http://www.w3.org/2000/svg" xmlns:xlink="http://www.w3.org/1999/xlink" x="0px" y="0px"
	 viewBox="0 0 1010 887.3183" enable-background="new 0 0 1010 887.3183" xml:space="preserve">
<g id="pen-letter-pen-letter">
	<path fill="#1A1A1A" d="M807.0977,0H341.6836v886.1093H1010V202.9257L807.0977,0z M819.457,72.0122l118.5303,118.5766H819.457
		V72.0122z M967.8145,843.9013H383.915V42.1855h393.3096v190.5894h190.5898V843.9013z"/>
	<rect x="485.2979" y="176.9526" fill="#1A1A1A" width="190.5439" height="42.209"/>
	<rect x="485.2979" y="313.0424" fill="#1A1A1A" width="381.1337" height="42.2315"/>
	<rect x="485.2979" y="449.1318" fill="#1A1A1A" width="381.1337" height="42.2314"/>
	<rect x="485.2979" y="585.3125" fill="#1A1A1A" width="381.1337" height="42.164"/>
	<rect x="485.2979" y="721.4023" fill="#1A1A1A" width="381.1337" height="42.1855"/>
	<path fill="#1A1A1A" d="M84.3721,116.9575H0v179.3471h39.8599V156.7949h44.5122v586.1562l72.1948,144.3672l72.1494-144.3672
		V25.8584H84.3721V116.9575z M124.2319,65.7187h64.67v51.2388h-64.67V65.7187z M124.2319,156.7949h64.67v576.7617l-32.335,64.6699
		l-32.335-64.6699V156.7949z"/>
</g>
</svg>
