<?xml version="1.0" encoding="utf-8"?>
<!-- Generator: Adobe Illustrator 17.1.0, SVG Export Plug-In . SVG Version: 6.00 Build 0)  -->
<!DOCTYPE svg PUBLIC "-//W3C//DTD SVG 1.1//EN" "http://www.w3.org/Graphics/SVG/1.1/DTD/svg11.dtd">
<svg version="1.1" id="rocket" xmlns="http://www.w3.org/2000/svg" xmlns:xlink="http://www.w3.org/1999/xlink" x="0px" y="0px"
	 viewBox="0 0 836.4074 1009.9995" enable-background="new 0 0 836.4074 1009.9995" xml:space="preserve">
<g id="rocket-rocket">
	<path fill="#1A1A1A" d="M828.145,711.3999c-2.1133-5.0381-5.0254-12.0595-8.6894-20.5488
		c-14.6543-33.9941-36.0713-84.8242-57.7237-136.2079c-43.8681-104.1401-73.1767-173.5122-80.0342-185.853
		c-10.5673-25.398-40.2988-65.9786-85.1523-59.2618c-3.5703-18.0947-8.5488-36.9287-15.4063-57.3598
		c-19.5859-58.6988-45.9344-126.6026-68.7138-177.1167C496.3618,39.356,470.06,14.9444,452.3061,7.3823
		c-22.8623-9.7104-49.1176-9.8632-74.7153-0.3286c-21.4643,8.0786-46.498,36.0244-60.9175,67.9981
		c-23.3432,52.0639-49.645,119.9448-68.667,177.1167c-6.7636,20.3603-11.6953,39.1006-15.312,57.0425
		c-40.8149-1.6319-67.9629,35.4492-77.0273,57.665c-7.6558,14.02-36.2593,81.5366-78.9536,182.9419
		c-22.2627,53.0264-44.6197,105.9707-59.7901,140.998c-0.2822,0.6104-0.5639,1.2793-0.7519,1.9141
		c-3.3814,7.7373-6.1055,14.2305-7.8907,18.6104c-10.5673,25.163-11.0371,44.5146-1.3149,59.1572
		c9.0181,13.5615,25.2217,20.4423,48.2832,20.4892l176.3652-0.0469c2.4893,0,4.8848-0.5635,7.0923-1.4443
		c2.2075,0.8809,4.6026,1.4443,7.1392,1.4443h62.7021l-0.0468,63.1251l-31.4214,113.4511
		c-2.1607,7.9258,0.7514,16.333,7.3735,21.1709c6.5757,4.8028,15.4526,5.1192,22.4038,0.6231l63.4541-41.0977l32.7368,52.4512
		c3.5694,5.7773,9.8164,9.3008,16.5328,9.3359c0.0937,0,0.1406,0,0.2353,0c6.6221,0,12.8223-3.3476,16.4854-8.9121l33.0078-50.4326
		l56.7363,35.9893c7.0928,4.4267,16.252,4.0625,22.7803-1.1621c6.5752-5.167,9.1592-13.9258,6.4814-21.876l-34.6152-101.1924
		v-71.4268h62.6074c4.0869,0,7.6563-1.5146,10.8027-3.6396c3.1475,2.125,6.7169,3.6396,10.7559,3.6396h176.2715
		c23.0146,0,39.2656-6.9043,48.3301-20.4658C839.1352,755.855,838.7124,736.5034,828.145,711.3999z M226.1191,370.9741v380.5118
		l-170.8232,0.0478c-12.3526,0-15.4053-2.8183-15.4053-2.8183c-0.0469-0.0586-2.2544-5.3311,4.9317-22.3916
		c1.9257-4.8262,4.8374-11.625,8.3603-19.7266c0.2817-0.6934,0.5635-1.3389,0.7515-2.0312
		c15.2646-35.1328,37.1987-87.2207,59.1328-139.414c32.7837-77.8379,69.9824-166.0791,78.1079-181.2735
		c0.1406-0.352,14.1372-32.6308,36.0244-35.2729C226.5889,356.1323,226.1191,363.6236,226.1191,370.9741z M474.0522,906.9155
		c-9.1123-5.789-21.1826-3.1582-27.0537,5.8477l-26.8066,40.8272l-27.0073-43.3047c-2.8184-4.5205-7.2803-7.7022-12.4468-8.8301
		c-5.1196-1.127-10.6148-0.2119-15.0298,2.6885l-36.6821,23.7666l12.5874-45.4307l144.228-0.0586l13.9492,40.8516L474.0522,906.9155
		z M348.001,843.0269v-52.0635h133.2378v52.0049L348.001,843.0269z M563.5727,751.5337l-298.0004-0.0478V370.9741
		c0-31.8325,6.2934-65.6025,19.8671-106.3593c18.3648-55.1407,44.7608-123.2676,67.2115-173.3711
		c12.3525-27.4527,31.7036-44.5723,38.749-47.2144c16.0161-6.0356,32.0322-6.0473,45.4658-0.3525
		c7.0332,3.0415,26.7598,19.1865,39.5352,47.5669c22.3095,49.4106,48.0957,115.9057,67.3047,173.4179
		c13.5273,40.4161,19.8671,74.2217,19.8671,106.3125C563.6206,409.1475,563.5727,676.2085,563.5727,751.5337z M796.5825,748.6568
		c-0.0469,0.0586-3.0996,2.8769-15.4531,2.8769H604.8579c-0.6572,0-1.1738,0.3057-1.7842,0.376c0-74.4805,0-342.6802,0-380.9356
		c0-7.4091-0.5166-14.9008-1.081-22.4741c0.0947,0,0.2353,0.0703,0.3769,0.0352c25.5029-4.6734,42.6934,35.0263,43.7266,37.269
		c7.4688,13.6441,46.0293,105.2085,80.0332,185.959c21.418,50.9141,42.5068,101.0869,57.0664,134.834
		c3.6172,8.2305,6.4824,15.088,8.5488,20.0664C798.7895,743.4312,796.5825,748.6568,796.5825,748.6568z"/>
	<path fill="#1A1A1A" d="M414.5078,343.8501c-59.6025,0-108.1206,48.5181-108.1206,108.1792
		c0,59.6494,48.5181,108.1675,108.1206,108.1675c59.6382,0,108.2505-48.5181,108.2974-108.1792
		C522.8052,392.3682,474.1938,343.8501,414.5078,343.8501z M414.5078,527.0488c-41.3315,0-74.9609-33.664-75.0078-75.0195
		c0.0469-41.3672,33.6763-75.0317,75.0078-75.0317c41.4146,0,75.1372,33.6528,75.1372,75.0083
		C489.5981,493.3848,455.8755,527.0488,414.5078,527.0488z"/>
</g>
</svg>
