<?xml version="1.0" encoding="utf-8"?>
<!-- Generator: Adobe Illustrator 17.1.0, SVG Export Plug-In . SVG Version: 6.00 Build 0)  -->
<!DOCTYPE svg PUBLIC "-//W3C//DTD SVG 1.1//EN" "http://www.w3.org/Graphics/SVG/1.1/DTD/svg11.dtd">
<svg version="1.1" id="smartphone-dollar-sign" xmlns="http://www.w3.org/2000/svg" xmlns:xlink="http://www.w3.org/1999/xlink"
	 x="0px" y="0px" viewBox="0 0 797.002 1010" enable-background="new 0 0 797.002 1010" xml:space="preserve">
<g id="smartphone-dollar-sign-smartphone-dollar-sign">
	<path fill="#1A1A1A" d="M0,0v1010h797.002V0H0z M748.919,961.917H48.083V48.1084h700.836V961.917z"/>
	<path fill="#1A1A1A" d="M676.7686,107.584H120.2334v703.6221h556.5352V107.584z M628.6856,763.0977H168.3164V155.6924h460.3692
		V763.0977z"/>
	<rect x="329.0391" y="858.8457" fill="#1A1A1A" width="138.8994" height="48.1084"/>
	<path fill="#1A1A1A" d="M396.0596,561.6153c-26.2363,0-45.6421-4.9561-54.6177-13.9815
		c-5.918-5.9668-6.3862-12.6738-6.3618-19.3066c0-12.1817-9.8633-21.6992-22.0444-21.749c0,0-0.0249,0-0.0493,0
		c-12.1563,0-22.0196,10.184-22.0938,22.3408c-0.0244,7.5205-0.1479,30.4033,19.2334,49.8828
		c15.5098,15.584,39.8721,24.0664,71.583,26.1133v29.5898c0,12.2061,9.8877,22.0938,22.0938,22.0938
		c12.206,0,22.0937-9.8877,22.0937-22.0938v-30.6006c28.4063-3.8467,50.4258-13.5371,65.5908-28.998
		c24.4854-24.9541,23.8936-57.3057,23.6221-71.1143l-0.0488-3.1318c0-19.2822-20.1953-91.3091-119.001-91.3091
		c-60.9795,0-60.9795-16.1509-60.9795-35.3599c-0.0244-14.9921,0.4688-25.3486,7.2988-32.1787
		c5.8438-5.8442,19.8994-12.8471,53.6807-12.8471c57.4541,0,60.8809,27.124,60.9551,32.7954
		c-0.2461,12.0088,9.1484,22.0444,21.206,22.5625c12.2305,0.4931,22.4639-9.0005,22.9571-21.1817
		c0.123-2.7617,0.5175-27.7158-20.1455-49.2422c-13.4141-13.9814-32.253-22.809-55.9004-26.705v-31.4395
		c0-12.2056-9.8877-22.0937-22.0938-22.0937c-12.206,0-22.0937,9.8881-22.0937,22.0937v29.8858
		c-31.5625,2.0224-54.8643,9.9619-69.8565,24.9541c-20.2695,20.3183-20.2197,46.3086-20.1953,65.4677
		c0,52.8672,33.4121,77.4761,105.167,77.4761c71.0898,0,74.7891,46.9985,74.8135,47.1216l0.0488,3.9702
		c0.2217,10.9976,0.5186,27.6172-10.9727,39.3296C448.6065,555.5244,426.5127,561.6153,396.0596,561.6153z"/>
</g>
</svg>
