<?xml version="1.0" encoding="utf-8"?>
<!-- Generator: Adobe Illustrator 17.1.0, SVG Export Plug-In . SVG Version: 6.00 Build 0)  -->
<!DOCTYPE svg PUBLIC "-//W3C//DTD SVG 1.1//EN" "http://www.w3.org/Graphics/SVG/1.1/DTD/svg11.dtd">
<svg version="1.1" id="strategy" xmlns="http://www.w3.org/2000/svg" xmlns:xlink="http://www.w3.org/1999/xlink" x="0px" y="0px"
	 viewBox="0 0 570.5355 1010.0023" enable-background="new 0 0 570.5355 1010.0023" xml:space="preserve">
<g id="strategy-strategy">
	<path fill="#1A1A1A" d="M385.8751,755.6175H81.1871c-5.6045,0-10.872,2.668-14.1225,7.1954
		c-81.8213,112.3076-88.3443,184.9375-21.9239,242.874c3.1832,2.7793,7.2631,4.3154,11.5224,4.3154H410.422
		c4.2363,0,8.3164-1.5361,11.499-4.3154c66.4434-57.9365,59.8975-130.5664-21.9013-242.874
		C396.7472,758.2855,391.4786,755.6175,385.8751,755.6175z M403.6964,974.9984H63.3658
		c-31.1816-29.0186-53.1054-71.6992,26.8101-184.377h286.7324C456.8009,903.2992,434.923,945.9798,403.6964,974.9984z"/>
	<path fill="#1A1A1A" d="M378.0294,720.6468c9.6387,0,17.4844-7.8339,17.4844-17.5068c0-9.6728-7.8457-17.5078-17.4844-17.5078
		H86.7911c-9.6616,0-17.4848,7.835-17.4848,17.5078c0,9.6729,7.8232,17.5068,17.4848,17.5068H378.0294z"/>
	<path fill="#1A1A1A" d="M524.7462,204.6371c-29.6123-18.2359-82.2461-70.9263-102.3769-102.5
		c-12.2393-19.2115-20.6231-32.0562-30.128-42.02c6.4561-8.2271,16.9473-17.8663,25.1065-23.3135
		c5.6269-3.7549,8.5859-10.4575,7.5771-17.1489c-1.0088-6.7027-5.7832-12.2168-12.2842-14.1788
		c-33.6699-10.0761-64.5156-6.1977-89.7558,11.231C210.3073-10.1705,40.8595,60.5541,8.5792,249.9637
		c-20.2871,119.5147,11.3203,276.2637,78.6602,390.0396c3.1382,5.3232,8.8769,8.5849,15.0639,8.5849h265.0113
		c6.9043,0,13.1357-4.0234,15.9609-10.289l50.6611-112.3745l0.2237-0.4932l0.1797-0.3813c0-0.0113,0-0.0225,0-0.0445
		c0.0224-0.0449,0-0.0898,0.0449-0.146c0.2246-0.5605,0.2695-1.1543,0.4482-1.726c0.0899-0.3028,0.1348-0.6163,0.2237-0.919
		c0.1797-0.6724,0.4043-1.3227,0.5156-2.0063c0.0683-0.5157,0.1797-1.0088,0.2021-1.5245c0-0.0673-0.0224-0.1118-0.0224-0.1791
		c0.0224-0.6724-0.1114-1.3228-0.1797-1.9952c-0.0215-0.1235-0.0215-0.2353-0.0215-0.3589
		c-0.0234-0.1118-0.0234-0.2241-0.0449-0.3359c-0.1123-0.9414-0.1348-1.8833-0.3809-2.791
		c-0.0683-0.2466-0.247-0.4595-0.3144-0.7061c-0.0225-0.0449-0.0664-0.0898-0.0664-0.1347
		c-0.2246-0.6275-0.5391-1.2105-0.8077-1.8042c-0.0898-0.2022-0.1787-0.4151-0.2685-0.6167
		c-0.0449-0.0337-0.0449-0.0674-0.0684-0.1006c-0.4023-0.7734-0.8066-1.5244-1.3222-2.2305
		c-0.1797-0.2246-0.4034-0.3926-0.5821-0.6054c-0.0234-0.0225-0.0449-0.0337-0.0683-0.0562
		c-0.4024-0.4932-0.8731-0.9526-1.3223-1.4009c-0.2246-0.1904-0.3584-0.4145-0.582-0.5942v-0.0112
		c-0.3594-0.3135-0.584-0.7286-0.9863-1.0201c-60.1221-44.1718-123.1583-119.3686-143.2437-197.1323
		c15.7817,14.3467,40.6196,20.9932,71.4644,13.2822c23.9189-5.9741,58.8671-11.6455,73.7285-3.5644
		c9.9531,5.4472,44.2959,24.8823,67.0039,46.4136c3.4521,3.2729,8.1601,5.2006,12.7773,4.7861
		c4.7754-0.2017,9.2129-2.3203,12.374-5.8731c5.0889-5.7949,30.9795-35.2954,38.3331-48.0053
		C579.4435,281.9525,572.8302,234.3168,524.7462,204.6371z M530.8214,296.1869c-2.8916,5.0215-13.0244,17.5747-22.8877,29.1753
		c-23.873-19.1997-51.4014-34.7906-60.5019-39.7447c-10.8946-5.9404-23.8741-8.8208-39.7452-8.8208
		c-20.2421,0-42.2998,4.8868-59.247,9.1573c-6.1875,1.5468-11.9258,2.3198-17.0821,2.3198
		c-30.8906,0-34.4316-29.8589-34.791-39.0835c-0.6269-15.2432-11.8808-26.7319-26.1377-26.7319
		c-12.7778,0-25.9585,10.3007-26.4965,29.9262c-3.0264,101.9849,75.0961,209.4395,152.7924,270.9283l-40.709,90.2617H112.4132
		C52.359,507.2513,24.6071,364.8158,43.1012,255.826C67.6022,111.8544,180.3585,46.2748,274.7775,46.2748
		c16.791,0,32.5937,2.1294,46.9414,6.3213c5.5586,1.603,11.6113,0.3588,16.0947-3.3511
		c8.833-7.3418,18.4043-11.7915,29.0967-13.4839c-5.8731,7.0503-10.8946,14.7612-13.4727,22.5063
		c-2.3984,7.1734,0.1133,15.0865,6.1651,19.5699c9.5048,7.039,15.9609,15.9716,33.2666,43.1186
		c23.0888,36.1914,79.3105,92.3902,113.5175,113.4619C536.8292,253.2255,540.4161,279.5878,530.8214,296.1869z"/>
</g>
</svg>
