<?xml version="1.0" encoding="utf-8"?>
<!-- Generator: Adobe Illustrator 17.1.0, SVG Export Plug-In . SVG Version: 6.00 Build 0)  -->
<!DOCTYPE svg PUBLIC "-//W3C//DTD SVG 1.1//EN" "http://www.w3.org/Graphics/SVG/1.1/DTD/svg11.dtd">
<svg version="1.1" id="suitcase" xmlns="http://www.w3.org/2000/svg" xmlns:xlink="http://www.w3.org/1999/xlink" x="0px" y="0px"
	 viewBox="0 0 1010 898.1015" enable-background="new 0 0 1010 898.1015" xml:space="preserve">
<g id="suitcase-suitcase">
	<path fill="none" d="M505,42.955c-76.3662,0-143.5107,53.1631-161.7822,126.8907h323.4658
		C648.4365,96.1181,581.293,42.955,505,42.955z"/>
	<g>
		<path fill="#1A1A1A" d="M892.4053,169.8457H710.082c0.0743-1.6768,0.2959-3.2793-0.0742-4.9805C689.1475,69.3388,602.8926,0,505,0
			c-97.8931,0-184.1719,69.3388-205.082,164.8652c-0.3457,1.7012-0.1485,3.3037-0.0742,4.9805H117.521
			C52.6943,169.8457,0,222.5898,0,287.416v493.165c0,64.7764,52.6943,117.5205,117.521,117.5205h774.8843
			c64.9004,0,117.5947-52.7441,117.5947-117.5205V287.416C1010,222.5898,957.3057,169.8457,892.4053,169.8457z M505,42.955
			c76.293,0,143.4365,53.1631,161.6836,126.8907H343.2178C361.4893,96.1181,428.6338,42.955,505,42.955z M966.9961,780.581
			c0,41.1045-33.4365,74.5166-74.5908,74.5166H117.521c-41.105,0-74.5664-33.4121-74.5664-74.5166V287.416
			c0-41.1045,33.4614-74.5664,74.5664-74.5664h774.8843c41.1543,0,74.5908,33.4619,74.5908,74.5664V780.581z"/>
		<rect x="128.9131" y="665.0322" fill="#1A1A1A" width="752.1494" height="42.9795"/>
		<rect x="128.9131" y="364.1523" fill="#1A1A1A" width="752.1494" height="42.9307"/>
		<rect x="128.9131" y="514.5927" fill="#1A1A1A" width="752.1494" height="42.9541"/>
	</g>
</g>
</svg>
