<?xml version="1.0" encoding="utf-8"?>
<!-- Generator: Adobe Illustrator 17.1.0, SVG Export Plug-In . SVG Version: 6.00 Build 0)  -->
<!DOCTYPE svg PUBLIC "-//W3C//DTD SVG 1.1//EN" "http://www.w3.org/Graphics/SVG/1.1/DTD/svg11.dtd">
<svg version="1.1" id="target" xmlns="http://www.w3.org/2000/svg" xmlns:xlink="http://www.w3.org/1999/xlink" x="0px" y="0px"
	 viewBox="0 0 1010.0034 1005.8436" enable-background="new 0 0 1010.0034 1005.8436" xml:space="preserve">
<path id="target-target" fill="#1A1A1A" d="M994.3628,212.8158c14.1992-14.1748,19.1866-33.5996,13.0772-50.7334
	c-6.2276-17.3008-22.002-28.8745-42.1905-30.9507l-78.4628-7.9468l-8.0176-78.6533c-2.124-20.2363-13.7696-35.9624-31.1182-42.0474
	c-16.9912-6.0136-36.5107-0.9067-50.5185,13.125L679.1753,133.494c-2.6718,2.6968-4.8681,6.0376-7.1347,9.2832
	C608.1343,108.891,535.398,89.4901,458.1768,89.4901C205.5113,89.4901,0,295.0252,0,547.6668s205.5113,458.1768,458.1768,458.1768
	c252.5942,0,458.1528-205.5352,458.1528-458.1768c0-75.122-18.5176-145.8769-50.6855-208.518
	c3.8896-2.6011,7.7314-5.3218,10.8574-8.4717L994.3628,212.8158z M847.4117,307.1957c-4.5098,3.4838-10.2608,6.2285-16.3936,7.9228
	c-4.915,1.3599-9.9033,2.1953-14.2939,1.7656l-6.6582-0.6679l-62.1641-6.3003l-36.5352,36.5351l-12.9804,12.9815l-13.1739,13.1728
	l-60.9941,61.0186l-13.1484,13.125l-13.3633,13.3872l-50.9727,50.9722l3.3408,10.6191
	c10.6436,33.8623,1.8135,70.3495-23.124,95.2383c-17.8974,17.9219-41.6172,27.8008-66.9126,27.8008h-0.0478
	c-25.295,0-49.1109-9.9024-67.0083-27.8721c-17.8496-17.8496-27.6817-41.6182-27.6817-66.9365
	c0-25.3428,9.8321-49.1109,27.7295-67.0083c17.4204-17.4444,41.7129-27.4429,66.7222-27.4429
	c9.7358,0,19.3291,1.4556,28.5405,4.3428l10.5952,3.3413l51.9029-51.9029l13.125-13.125l13.0058-13.0293l61.0176-60.9951
	l13.1494-13.1723l12.9815-12.982l36.0097-36.0097l-6.4668-63.7867l-0.5009-4.8203c-0.4776-4.8681,0.4287-10.4287,2.0761-15.8457
	c1.8369-6.0849,4.749-11.7407,8.3994-16.0835c0.5489-0.6684,0.9786-1.5034,1.5508-2.0761L823.0718,41.5248
	c4.0088-4.0567,8.4004-5.8467,12.4082-4.4864c5.2988,1.8614,6.5391,8.543,6.8262,11.2637l11.0244,108.3394l108.1963,10.9536
	c2.7921,0.2861,9.498,1.5268,11.4062,6.8486c1.3125,3.6987-0.3339,8.3521-4.4619,12.4565L850.562,304.7855
	C849.7027,305.6444,848.4624,306.3841,847.4117,307.1957z M458.1768,969.1903c-232.4292,0-421.523-189.0938-421.523-421.5235
	c0-232.4291,189.0938-421.5224,421.523-421.5224c72.2349,0,140.269,18.3032,199.7602,50.4707
	c-1.289,6.9204-1.957,13.8408-1.3125,20.4033l5.2266,51.354l-27.8252,27.8247c-50.6855-32.9551-111.0127-52.3086-175.8491-52.3086
	c-178.5459,0-323.7783,145.2325-323.7783,323.7783s145.2324,323.7784,323.7783,323.7784
	c178.4985,0,323.7544-145.2325,323.7544-323.7784c0-62.6889-18.207-121.0825-49.1826-170.7187l28.8037-28.8027l51.4492,5.2021
	c5.9658,0.5967,12.1934,0.2149,18.4706-0.7876c30.6406,58.4175,48.2031,124.71,48.2031,195.1069
	C879.6753,780.0965,690.5816,969.1903,458.1768,969.1903z M587.9937,521.7035l26.4404-26.4405
	c5.5362,16.4893,8.6631,34.0767,8.6631,52.4038c0,90.9668-74.001,164.9434-164.9204,164.9434
	c-90.9673,0-164.9439-73.9766-164.9439-164.9434c0-90.9672,73.9766-164.9433,164.9439-164.9433
	c20.5942,0,40.2334,3.9609,58.4419,10.9053l-28.3262,28.3256c-43.0019-9.5449-90.2514,4.0811-121.1782,35.0796
	c-24.8179,24.794-38.4678,57.7969-38.4678,92.9239c0,35.1035,13.6499,68.082,38.3721,92.8281
	c24.8179,24.9141,57.8447,38.6348,93.0195,38.6348c35.0791,0,68.0581-13.6973,92.8052-38.5391
	C584.7964,611.0008,597.7535,565.4696,587.9937,521.7035z M458.1768,346.0692c-111.1558,0-201.5977,90.4419-201.5977,201.5976
	c0,111.1562,90.4419,201.5977,201.5977,201.5977c111.1313,0,201.5737-90.4414,201.5737-201.5977
	c0-28.7075-6.1328-55.9833-16.9912-80.7294l63.3574-63.3575c24.7471,42.4292,39.1602,91.5401,39.1602,144.0869
	c0,158.3096-128.8145,287.1241-287.1001,287.1241c-158.3574,0-287.124-128.8145-287.124-287.1241s128.7666-287.124,287.124-287.124
	c54.6948,0,105.6431,15.6543,149.2173,42.3096l-62.9278,62.9038C518.2652,353.2757,489.0796,346.0692,458.1768,346.0692z"/>
</svg>
