<?xml version="1.0" encoding="utf-8"?>
<!-- Generator: Adobe Illustrator 17.1.0, SVG Export Plug-In . SVG Version: 6.00 Build 0)  -->
<!DOCTYPE svg PUBLIC "-//W3C//DTD SVG 1.1//EN" "http://www.w3.org/Graphics/SVG/1.1/DTD/svg11.dtd">
<svg version="1.1" id="tie" xmlns="http://www.w3.org/2000/svg" xmlns:xlink="http://www.w3.org/1999/xlink" x="0px" y="0px"
	 viewBox="0 0 553.0364 1010" enable-background="new 0 0 553.0364 1010" xml:space="preserve">
<path id="tie-tie" fill="#1A1A1A" d="M551.1129,725.3584l-190.9033-448.792c58.7852-67.7973,96.5117-167.7495,98.1885-172.2251
	c0.789-2.0712,1.2822-4.2778,1.4306-6.5219l0.542-6.8301c0.6416-7.8169-2.663-15.4487-8.6796-20.4297
	C394.8786,23.7217,334.9596,0,273.4616,0C167.8751,0,96.9088,70.1407,93.9498,73.1368c-6.6577,6.6821-8.729,16.6069-5.4248,25.4345
	c1.7754,4.8086,42.708,112.3428,103.3672,182.3848L1.9254,725.3096c-3.8467,9.0488-1.8247,19.5654,5.1289,26.5068l252.4014,251.1807
	c4.6851,4.6729,10.8496,7.0029,16.9648,7.0029c6.1153,0,12.2793-2.33,16.9649-6.9902l252.5488-251.1807
	C552.938,744.8877,554.9595,734.4073,551.1129,725.3584z M139.7648,96.9688C161.0202,80.127,209.8927,48.084,273.4616,48.084
	c45.8144,0,91.3828,16.8413,135.6201,50.0928c-11.2442,27.272-44.0889,100.4824-87.9307,149.5273l-93.9975-0.0244
	C185.4811,198.9673,152.7843,128.001,139.7648,96.9688z M276.4205,952.0284L52.5734,729.2178l185.2817-433.4424l78.2647,0.0371
	l184.3457,433.3799L276.4205,952.0284z"/>
</svg>
