<?xml version="1.0" encoding="utf-8"?>
<!-- Generator: Adobe Illustrator 17.1.0, SVG Export Plug-In . SVG Version: 6.00 Build 0)  -->
<!DOCTYPE svg PUBLIC "-//W3C//DTD SVG 1.1//EN" "http://www.w3.org/Graphics/SVG/1.1/DTD/svg11.dtd">
<svg version="1.1" id="window-graphs" xmlns="http://www.w3.org/2000/svg" xmlns:xlink="http://www.w3.org/1999/xlink" x="0px"
	 y="0px" viewBox="0 0 1010 823.3965" enable-background="new 0 0 1010 823.3965" xml:space="preserve">
<g id="window-graphs-window-graphs">
	<path fill="#1A1A1A" d="M0,0v823.3965h1010V0H0z M964.1123,777.4844H45.9111V170.3296h918.2012V777.4844z M964.1123,124.395
		H45.9111V45.9346h918.2012V124.395z"/>
	<rect x="100.7227" y="62.209" fill="#1A1A1A" width="62.1621" height="45.9116"/>
	<rect x="225.0942" y="62.209" fill="#1A1A1A" width="62.209" height="45.9116"/>
	<rect x="349.5122" y="62.209" fill="#1A1A1A" width="62.1856" height="45.9116"/>
	<rect x="107.4863" y="276.125" fill="#1A1A1A" width="128.6216" height="428.4892"/>
	<rect x="280.4927" y="393.31" fill="#1A1A1A" width="128.622" height="311.3042"/>
	<rect x="453.4995" y="494.9726" fill="#1A1A1A" width="128.6216" height="209.6416"/>
	<path fill="#1A1A1A" d="M776.0762,478.8857c-20.6895,0-35.5782-3.9453-43.0938-11.4599
		c-5.9178-5.9649-5.8711-13.1035-5.8476-17.0728c0-6.7168-5.4473-11.9302-12.1407-11.9536c-0.0234,0-0.0234,0-0.0234,0
		c-6.7168,0-12.165,5.6831-12.2119,12.3994c-0.0234,5.1192-0.0703,20.666,12.9629,33.8164
		c11.2959,11.3438,29.5898,17.3086,53.8252,18.2715v25.5508c0,6.7402,5.4726,12.2109,12.2119,12.2109
		c6.7402,0,12.1885-5.4707,12.1885-12.2109v-26.1621c21.6523-2.3711,38.3027-9.1817,49.4101-20.5244
		c16.8145-17.1436,16.416-38.9366,16.2277-49.3868l-0.0469-2.372c0-13.3389-14.1611-63.125-83.4619-63.125
		c-48.9414,0-48.9414-15.147-48.9414-28.5567v-1.5029c-0.0235-9.8164-0.0469-19.9614,6.5761-26.5371
		c6.9278-6.998,21.6055-10.6616,42.3653-10.6616c19.2324,0,33.6054,4.2744,41.6133,12.3056
		c7.162,7.1626,7.2793,15.3116,7.2793,15.9224c-0.1875,6.6694,5.0262,12.2349,11.7187,12.4932
		c6.0352,0.1411,12.377-4.9551,12.6348-11.6949c0.0938-1.832,0.3759-18.5996-13.7149-33.2534
		c-9.8633-10.2861-24.0703-16.5796-42.2245-18.9751v-26.584c0-6.7163-5.4473-12.1879-12.1875-12.1879
		c-6.7402,0-12.1875,5.4716-12.1875,12.1879v25.5977c-24.3535,0.9395-41.6377,6.6694-52.582,17.6133
		c-13.7139,13.7612-13.6904,31.8442-13.667,43.8208v1.456c0,36.6353,22.6152,52.9331,73.3174,52.9331
		c56.2441,0,59.0625,38.42,59.1093,38.7486l0.0235,2.8413c0.164,8.2432,0.3984,22.0044-9.2539,31.8677
		C816.7031,474.1191,799.9121,478.8857,776.0762,478.8857z"/>
	<rect x="700.7158" y="579.4443" fill="#1A1A1A" width="176.7403" height="19.9854"/>
	<rect x="700.7158" y="629.0664" fill="#1A1A1A" width="176.7403" height="19.9375"/>
	<rect x="700.7158" y="685.709" fill="#1A1A1A" width="176.7403" height="19.9853"/>
</g>
</svg>
